<?xml version="1.0" encoding="UTF-8"?>
<!--Generator: Apple Native CoreSVG 175.5-->
<!DOCTYPE svg
PUBLIC "-//W3C//DTD SVG 1.1//EN"
       "http://www.w3.org/Graphics/SVG/1.1/DTD/svg11.dtd">
<svg version="1.1" xmlns="http://www.w3.org/2000/svg" xmlns:xlink="http://www.w3.org/1999/xlink" width="3300" height="2200">
 <!--glyph: "uni100F0F.medium", point size: 100.0, font version: "18.0d12e2", template writer version: "101"-->
 <g id="Notes">
  <rect height="2200" id="artboard" style="fill:white;opacity:1" width="3300" x="0" y="0"/>
  <line style="fill:none;stroke:black;opacity:1;stroke-width:0.5;" x1="263" x2="3036" y1="292" y2="292"/>
  <text style="stroke:none;fill:black;font-family:sans-serif;font-size:13;font-weight:bold;" transform="matrix(1 0 0 1 263 322)">Weight/Scale Variations</text>
  <text style="stroke:none;fill:black;font-family:sans-serif;font-size:13;text-anchor:middle;" transform="matrix(1 0 0 1 559.711 322)">Ultralight</text>
  <text style="stroke:none;fill:black;font-family:sans-serif;font-size:13;text-anchor:middle;" transform="matrix(1 0 0 1 856.422 322)">Thin</text>
  <text style="stroke:none;fill:black;font-family:sans-serif;font-size:13;text-anchor:middle;" transform="matrix(1 0 0 1 1153.13 322)">Light</text>
  <text style="stroke:none;fill:black;font-family:sans-serif;font-size:13;text-anchor:middle;" transform="matrix(1 0 0 1 1449.84 322)">Regular</text>
  <text style="stroke:none;fill:black;font-family:sans-serif;font-size:13;text-anchor:middle;" transform="matrix(1 0 0 1 1746.56 322)">Medium</text>
  <text style="stroke:none;fill:black;font-family:sans-serif;font-size:13;text-anchor:middle;" transform="matrix(1 0 0 1 2043.27 322)">Semibold</text>
  <text style="stroke:none;fill:black;font-family:sans-serif;font-size:13;text-anchor:middle;" transform="matrix(1 0 0 1 2339.98 322)">Bold</text>
  <text style="stroke:none;fill:black;font-family:sans-serif;font-size:13;text-anchor:middle;" transform="matrix(1 0 0 1 2636.69 322)">Heavy</text>
  <text style="stroke:none;fill:black;font-family:sans-serif;font-size:13;text-anchor:middle;" transform="matrix(1 0 0 1 2933.4 322)">Black</text>
  <line style="fill:none;stroke:black;opacity:1;stroke-width:0.5;" x1="263" x2="3036" y1="1903" y2="1903"/>
  <g transform="matrix(1 0 0 1 263 1933)">
   <path d="M9.24805 0.830078C13.5547 0.830078 17.1387-2.74414 17.1387-7.05078C17.1387-11.3574 13.5449-14.9316 9.23828-14.9316C4.94141-14.9316 1.36719-11.3574 1.36719-7.05078C1.36719-2.74414 4.95117 0.830078 9.24805 0.830078ZM9.24805-0.654297C5.70312-0.654297 2.87109-3.49609 2.87109-7.05078C2.87109-10.6055 5.69336-13.4473 9.23828-13.4473C12.793-13.4473 15.6445-10.6055 15.6445-7.05078C15.6445-3.49609 12.8027-0.654297 9.24805-0.654297ZM5.6543-7.05078C5.6543-6.62109 5.95703-6.32812 6.40625-6.32812L8.50586-6.32812L8.50586-4.20898C8.50586-3.76953 8.79883-3.4668 9.22852-3.4668C9.67773-3.4668 9.9707-3.76953 9.9707-4.20898L9.9707-6.32812L12.0898-6.32812C12.5293-6.32812 12.832-6.62109 12.832-7.05078C12.832-7.49023 12.5293-7.79297 12.0898-7.79297L9.9707-7.79297L9.9707-9.90234C9.9707-10.3516 9.67773-10.6543 9.22852-10.6543C8.79883-10.6543 8.50586-10.3516 8.50586-9.90234L8.50586-7.79297L6.40625-7.79297C5.95703-7.79297 5.6543-7.49023 5.6543-7.05078Z"/>
  </g>
  <g transform="matrix(1 0 0 1 281.867 1933)">
   <path d="M11.709 2.91016C17.1582 2.91016 21.6699-1.61133 21.6699-7.05078C21.6699-12.5 17.1484-17.0117 11.6992-17.0117C6.25977-17.0117 1.74805-12.5 1.74805-7.05078C1.74805-1.61133 6.26953 2.91016 11.709 2.91016ZM11.709 1.25C7.09961 1.25 3.41797-2.44141 3.41797-7.05078C3.41797-11.6602 7.08984-15.3516 11.6992-15.3516C16.3086-15.3516 20.0098-11.6602 20.0098-7.05078C20.0098-2.44141 16.3184 1.25 11.709 1.25ZM7.17773-7.05078C7.17773-6.57227 7.50977-6.25 8.00781-6.25L10.8789-6.25L10.8789-3.36914C10.8789-2.88086 11.2109-2.53906 11.6895-2.53906C12.1777-2.53906 12.5195-2.87109 12.5195-3.36914L12.5195-6.25L15.4004-6.25C15.8887-6.25 16.2305-6.57227 16.2305-7.05078C16.2305-7.53906 15.8887-7.88086 15.4004-7.88086L12.5195-7.88086L12.5195-10.752C12.5195-11.25 12.1777-11.5918 11.6895-11.5918C11.2109-11.5918 10.8789-11.25 10.8789-10.752L10.8789-7.88086L8.00781-7.88086C7.50977-7.88086 7.17773-7.53906 7.17773-7.05078Z"/>
  </g>
  <g transform="matrix(1 0 0 1 305.646 1933)">
   <path d="M14.9707 5.66406C21.9336 5.66406 27.6953-0.0976562 27.6953-7.05078C27.6953-14.0137 21.9238-19.7754 14.9609-19.7754C8.00781-19.7754 2.25586-14.0137 2.25586-7.05078C2.25586-0.0976562 8.01758 5.66406 14.9707 5.66406ZM14.9707 3.84766C8.93555 3.84766 4.08203-1.01562 4.08203-7.05078C4.08203-13.0957 8.92578-17.9492 14.9609-17.9492C21.0059-17.9492 25.8691-13.0957 25.8691-7.05078C25.8691-1.01562 21.0156 3.84766 14.9707 3.84766ZM9.19922-7.05078C9.19922-6.5332 9.57031-6.17188 10.1172-6.17188L14.0625-6.17188L14.0625-2.2168C14.0625-1.67969 14.4336-1.29883 14.9512-1.29883C15.4883-1.29883 15.8594-1.66992 15.8594-2.2168L15.8594-6.17188L19.8145-6.17188C20.3516-6.17188 20.7324-6.5332 20.7324-7.05078C20.7324-7.59766 20.3613-7.96875 19.8145-7.96875L15.8594-7.96875L15.8594-11.9141C15.8594-12.4609 15.4883-12.8418 14.9512-12.8418C14.4336-12.8418 14.0625-12.4609 14.0625-11.9141L14.0625-7.96875L10.1172-7.96875C9.57031-7.96875 9.19922-7.59766 9.19922-7.05078Z"/>
  </g>
  <text style="stroke:none;fill:black;font-family:sans-serif;font-size:13;font-weight:bold;" transform="matrix(1 0 0 1 263 1953)">Design Variations</text>
  <text style="stroke:none;fill:black;font-family:sans-serif;font-size:13;" transform="matrix(1 0 0 1 263 1971)">Symbols are supported in up to nine weights and three scales.</text>
  <text style="stroke:none;fill:black;font-family:sans-serif;font-size:13;" transform="matrix(1 0 0 1 263 1989)">For optimal layout with text and other symbols, vertically align</text>
  <text style="stroke:none;fill:black;font-family:sans-serif;font-size:13;" transform="matrix(1 0 0 1 263 2007)">symbols with the adjacent text.</text>
  <line style="fill:none;stroke:#00AEEF;stroke-width:0.5;opacity:1.0;" x1="776" x2="776" y1="1919" y2="1933"/>
  <g transform="matrix(1 0 0 1 776 1933)">
   <path d="M3.31055 0.15625C3.82812 0.15625 4.08203-0.0390625 4.26758-0.585938L5.52734-4.0332L11.2891-4.0332L12.5488-0.585938C12.7344-0.0390625 12.9883 0.15625 13.4961 0.15625C14.0137 0.15625 14.3457-0.15625 14.3457-0.644531C14.3457-0.810547 14.3164-0.966797 14.2383-1.17188L9.6582-13.3691C9.43359-13.9648 9.0332-14.2676 8.4082-14.2676C7.80273-14.2676 7.39258-13.9746 7.17773-13.3789L2.59766-1.16211C2.51953-0.957031 2.49023-0.800781 2.49023-0.634766C2.49023-0.146484 2.80273 0.15625 3.31055 0.15625ZM6.00586-5.51758L8.37891-12.0898L8.42773-12.0898L10.8008-5.51758Z"/>
  </g>
  <line style="fill:none;stroke:#00AEEF;stroke-width:0.5;opacity:1.0;" x1="793.197" x2="793.197" y1="1919" y2="1933"/>
  <text style="stroke:none;fill:black;font-family:sans-serif;font-size:13;font-weight:bold;" transform="matrix(1 0 0 1 776 1953)">Margins</text>
  <text style="stroke:none;fill:black;font-family:sans-serif;font-size:13;" transform="matrix(1 0 0 1 776 1971)">Leading and trailing margins on the left and right side of each symbol</text>
  <text style="stroke:none;fill:black;font-family:sans-serif;font-size:13;" transform="matrix(1 0 0 1 776 1989)">can be adjusted by modifying the x-location of the margin guidelines.</text>
  <text style="stroke:none;fill:black;font-family:sans-serif;font-size:13;" transform="matrix(1 0 0 1 776 2007)">Modifications are automatically applied proportionally to all</text>
  <text style="stroke:none;fill:black;font-family:sans-serif;font-size:13;" transform="matrix(1 0 0 1 776 2025)">scales and weights.</text>
  <g transform="matrix(1 0 0 1 1289 1933)">
   <path d="M2.8418 1.86523L4.54102 3.57422C5.40039 4.44336 6.38672 4.38477 7.31445 3.35938L18.0078-8.42773L17.041-9.4043L6.42578 2.27539C6.07422 2.67578 5.74219 2.77344 5.27344 2.30469L4.10156 1.14258C3.63281 0.683594 3.74023 0.341797 4.14062-0.0195312L15.6152-10.8203L14.6387-11.7871L3.04688-0.898438C2.06055 0.0195312 1.98242 0.996094 2.8418 1.86523ZM9.25781-16.3281C8.83789-15.918 8.80859-15.3418 9.04297-14.9512C9.27734-14.5898 9.73633-14.3555 10.3809-14.5215C11.8457-14.8633 13.3691-14.9219 14.7949-13.9844L14.209-12.5293C13.8672-11.6992 14.043-11.1133 14.5801-10.5664L16.875-8.25195C17.3633-7.76367 17.7734-7.74414 18.3398-7.8418L19.4043-8.03711L20.0684-7.36328L20.0293-6.80664C19.9902-6.30859 20.1172-5.92773 20.6055-5.44922L21.3672-4.70703C21.8457-4.22852 22.4609-4.19922 22.9297-4.66797L25.8398-7.58789C26.3086-8.05664 26.2891-8.65234 25.8105-9.13086L25.0391-9.89258C24.5605-10.3711 24.1895-10.5273 23.7109-10.4883L23.1348-10.4395L22.4902-11.0742L22.7344-12.1973C22.8613-12.7637 22.7051-13.2031 22.1191-13.7891L19.9219-15.9766C16.582-19.2969 12.1484-19.2188 9.25781-16.3281ZM10.752-15.957C13.1836-17.7344 16.4746-17.4316 18.7012-15.2051L21.1328-12.793C21.3672-12.5586 21.4062-12.373 21.3379-12.0312L21.0156-10.5469L22.5195-9.0625L23.5059-9.12109C23.7598-9.13086 23.8379-9.11133 24.0332-8.91602L24.6094-8.33984L22.168-5.89844L21.5918-6.47461C21.3965-6.66992 21.3672-6.74805 21.377-7.01172L21.4453-7.98828L19.9512-9.47266L18.4277-9.21875C18.1055-9.15039 17.959-9.17969 17.7148-9.41406L15.7129-11.416C15.459-11.6504 15.4297-11.8164 15.5859-12.1875L16.4648-14.2773C14.9023-15.7324 12.8711-16.3574 10.8398-15.7617C10.6836-15.7227 10.625-15.8496 10.752-15.957Z"/>
  </g>
  <text style="stroke:none;fill:black;font-family:sans-serif;font-size:13;font-weight:bold;" transform="matrix(1 0 0 1 1289 1953)">Exporting</text>
  <text style="stroke:none;fill:black;font-family:sans-serif;font-size:13;" transform="matrix(1 0 0 1 1289 1971)">Symbols should be outlined when exporting to ensure the</text>
  <text style="stroke:none;fill:black;font-family:sans-serif;font-size:13;" transform="matrix(1 0 0 1 1289 1989)">design is preserved when submitting to Xcode.</text>
  <text id="template-version" style="stroke:none;fill:black;font-family:sans-serif;font-size:13;text-anchor:end;" transform="matrix(1 0 0 1 3036 1933)">Template v.4.0</text>
  <text style="stroke:none;fill:black;font-family:sans-serif;font-size:13;text-anchor:end;" transform="matrix(1 0 0 1 3036 1951)">Requires Xcode 14 or greater</text>
  <text id="descriptive-name" style="stroke:none;fill:black;font-family:sans-serif;font-size:13;text-anchor:end;" transform="matrix(1 0 0 1 3036 1969)">Generated from list.bullet.clipboard</text>
  <text style="stroke:none;fill:black;font-family:sans-serif;font-size:13;text-anchor:end;" transform="matrix(1 0 0 1 3036 1987)">Typeset at 100 points</text>
  <text style="stroke:none;fill:black;font-family:sans-serif;font-size:13;" transform="matrix(1 0 0 1 263 726)">Small</text>
  <text style="stroke:none;fill:black;font-family:sans-serif;font-size:13;" transform="matrix(1 0 0 1 263 1156)">Medium</text>
  <text style="stroke:none;fill:black;font-family:sans-serif;font-size:13;" transform="matrix(1 0 0 1 263 1586)">Large</text>
 </g>
 <g id="Guides">
  <g id="H-reference" style="fill:#27AAE1;stroke:none;" transform="matrix(1 0 0 1 339 696)">
   <path d="M0.993654 0L3.63775 0L29.3281-67.1323L30.0303-67.1323L30.0303-70.459L28.1226-70.459ZM11.6885-24.4799L46.9815-24.4799L46.2315-26.7285L12.4385-26.7285ZM55.1196 0L57.7637 0L30.6382-70.459L29.4326-70.459L29.4326-67.1323Z"/>
  </g>
  <line id="Baseline-S" style="fill:none;stroke:#27AAE1;opacity:1;stroke-width:0.5;" x1="263" x2="3036" y1="696" y2="696"/>
  <line id="Capline-S" style="fill:none;stroke:#27AAE1;opacity:1;stroke-width:0.5;" x1="263" x2="3036" y1="625.541" y2="625.541"/>
  <g id="H-reference" style="fill:#27AAE1;stroke:none;" transform="matrix(1 0 0 1 339 1126)">
   <path d="M0.993654 0L3.63775 0L29.3281-67.1323L30.0303-67.1323L30.0303-70.459L28.1226-70.459ZM11.6885-24.4799L46.9815-24.4799L46.2315-26.7285L12.4385-26.7285ZM55.1196 0L57.7637 0L30.6382-70.459L29.4326-70.459L29.4326-67.1323Z"/>
  </g>
  <line id="Baseline-M" style="fill:none;stroke:#27AAE1;opacity:1;stroke-width:0.5;" x1="263" x2="3036" y1="1126" y2="1126"/>
  <line id="Capline-M" style="fill:none;stroke:#27AAE1;opacity:1;stroke-width:0.5;" x1="263" x2="3036" y1="1055.54" y2="1055.54"/>
  <g id="H-reference" style="fill:#27AAE1;stroke:none;" transform="matrix(1 0 0 1 339 1556)">
   <path d="M0.993654 0L3.63775 0L29.3281-67.1323L30.0303-67.1323L30.0303-70.459L28.1226-70.459ZM11.6885-24.4799L46.9815-24.4799L46.2315-26.7285L12.4385-26.7285ZM55.1196 0L57.7637 0L30.6382-70.459L29.4326-70.459L29.4326-67.1323Z"/>
  </g>
  <line id="Baseline-L" style="fill:none;stroke:#27AAE1;opacity:1;stroke-width:0.5;" x1="263" x2="3036" y1="1556" y2="1556"/>
  <line id="Capline-L" style="fill:none;stroke:#27AAE1;opacity:1;stroke-width:0.5;" x1="263" x2="3036" y1="1485.54" y2="1485.54"/>
  <line id="left-margin-Regular-M" style="fill:none;stroke:#00AEEF;stroke-width:0.5;opacity:1.0;" x1="1396.32" x2="1396.32" y1="1030.79" y2="1150.12"/>
  <line id="right-margin-Regular-M" style="fill:none;stroke:#00AEEF;stroke-width:0.5;opacity:1.0;" x1="1503.37" x2="1503.37" y1="1030.79" y2="1150.12"/>
 </g>
 <g id="Symbols">
  <g id="Black-L" transform="matrix(1 0 0 1 2860.18 1556)">
   <path d="M50.162-45.2649C54.1166-45.2649 57.1977-48.3472 57.1977-52.3006C57.1977-56.2551 54.1166-59.3375 50.162-59.3375C46.2879-59.3375 43.1263-56.1759 43.1263-52.3006C43.1263-48.4265 46.2879-45.2649 50.162-45.2649ZM50.162-23.1887C54.1166-23.1887 57.1977-26.2698 57.1977-30.2244C57.1977-34.1205 54.0581-37.1808 50.162-37.1808C46.2671-37.1808 43.1263-34.0413 43.1263-30.2244C43.1263-26.2698 46.2087-23.1887 50.162-23.1887ZM50.162 0.0986236C54.1166 0.0986236 57.1977-2.98372 57.1977-6.93827C57.1977-10.8916 54.1166-13.974 50.162-13.974C46.2879-13.974 43.1263-10.8124 43.1263-6.93827C43.1263-3.06295 46.2879 0.0986236 50.162 0.0986236ZM69.0467-46.0516L97.1743-46.0516C100.615-46.0516 103.423-48.8606 103.423-52.3006C103.423-55.7418 100.615-58.5508 97.1743-58.5508L69.0467-58.5508C65.6056-58.5508 62.7977-55.7418 62.7977-52.3006C62.7977-48.8606 65.6056-46.0516 69.0467-46.0516ZM69.0467-23.9753L97.1743-23.9753C100.695-23.9753 103.423-26.704 103.423-30.2244C103.423-33.6656 100.636-36.3942 97.1743-36.3942L69.0467-36.3942C65.5847-36.3942 62.7977-33.6656 62.7977-30.2244C62.7977-26.704 65.5263-23.9753 69.0467-23.9753ZM69.0467-0.688038L97.1743-0.688038C100.615-0.688038 103.423-3.49709 103.423-6.93827C103.423-10.3783 100.636-13.1081 97.1743-13.1081L69.0467-13.1081C65.5847-13.1081 62.7977-10.3783 62.7977-6.93827C62.7977-3.49709 65.6056-0.688038 69.0467-0.688038ZM39.8892 40.0156L106.522 40.0156C121.157 40.0156 130.348 30.7668 130.348 15.8947L130.348-78.7069C130.348-93.4749 121.239-102.829 106.751-102.829L105.71-102.829C106.548-101.103 106.957-99.0624 106.957-96.8688L106.957-90.3706C106.957-88.0117 106.528-85.8465 105.649-83.9953L106.219-83.9953C109.533-83.9953 111.515-81.8234 111.515-78.546L111.515 15.7338C111.515 19.1141 109.409 21.2039 105.906 21.2039L40.5254 21.2039C37.0023 21.2039 34.8969 19.1141 34.8969 15.7338L34.8969-78.546C34.8969-81.8234 36.8774-83.9953 40.2131-83.9953L40.7842-83.9953C39.904-85.8465 39.4744-88.0117 39.4744-90.3706L39.4744-96.8688C39.4744-99.0624 39.8832-101.103 40.7217-102.829L39.681-102.829C25.1715-102.829 16.084-93.4749 16.084-78.7069L16.084 15.8947C16.084 30.7668 25.2548 40.0156 39.8892 40.0156ZM53.9558-82.9496L92.455-82.9496C96.7245-82.9496 99.298-85.6595 99.298-90.2423L99.298-96.87C99.298-101.454 96.7245-104.163 92.455-104.163L88.6997-104.163C88.1075-112.181 81.4707-118.581 73.2158-118.581C64.9622-118.581 58.3241-112.181 57.7111-104.163L53.9558-104.163C49.6875-104.163 47.1336-101.454 47.1336-96.87L47.1336-90.2423C47.1336-85.6595 49.6875-82.9496 53.9558-82.9496ZM73.2158-97.7259C70.0019-97.7259 67.3908-100.397 67.3908-103.551C67.3908-106.708 70.0019-109.298 73.2158-109.298C76.4298-109.298 79.02-106.708 79.02-103.551C79.02-100.397 76.4298-97.7259 73.2158-97.7259Z"/>
  </g>
  <g id="Heavy-L" transform="matrix(1 0 0 1 2564.51 1556)">
   <path d="M48.2943-45.6605C51.9902-45.6605 54.881-48.557 54.881-52.2472C54.881-55.9431 51.9902-58.8395 48.2943-58.8395C44.6789-58.8395 41.7076-55.8682 41.7076-52.2472C41.7076-48.6318 44.6789-45.6605 48.2943-45.6605ZM48.2943-23.4998C51.9902-23.4998 54.881-26.3907 54.881-30.0865C54.881-33.7378 51.9456-36.5984 48.2943-36.5984C44.6487-36.5984 41.7076-33.663 41.7076-30.0865C41.7076-26.3907 44.6041-23.4998 48.2943-23.4998ZM48.2943-0.110415C51.9902-0.110415 54.881-3.00688 54.881-6.70273C54.881-10.393 51.9902-13.2894 48.2943-13.2894C44.6789-13.2894 41.7076-10.3182 41.7076-6.70273C41.7076-3.08168 44.6789-0.110415 48.2943-0.110415ZM66.6015-46.5982L97.0985-46.5982C100.208-46.5982 102.747-49.1437 102.747-52.2472C102.747-55.3564 100.208-57.9018 97.0985-57.9018L66.6015-57.9018C63.4923-57.9018 60.9525-55.3564 60.9525-52.2472C60.9525-49.1437 63.4923-46.5982 66.6015-46.5982ZM66.6015-24.4376L97.0985-24.4376C100.282-24.4376 102.747-26.9026 102.747-30.0865C102.747-33.1957 100.238-35.6607 97.0985-35.6607L66.6015-35.6607C63.4621-35.6607 60.9525-33.1957 60.9525-30.0865C60.9525-26.9026 63.4175-24.4376 66.6015-24.4376ZM66.6015-1.04817L97.0985-1.04817C100.208-1.04817 102.747-3.59357 102.747-6.70273C102.747-9.80628 100.238-12.2769 97.0985-12.2769L66.6015-12.2769C63.4621-12.2769 60.9525-9.80628 60.9525-6.70273C60.9525-3.59357 63.4923-1.04817 66.6015-1.04817ZM38.8 39.3593L105.53 39.3593C119.731 39.3593 128.276 30.7694 128.276 16.3497L128.276-78.5837C128.276-92.8525 119.846-101.599 105.862-101.599L104.596-101.599C105.251-100.166 105.563-98.4741 105.563-96.6841L105.563-90.4735C105.563-88.4477 105.221-86.5748 104.511-84.9607L105.403-84.9607C109.391-84.9607 111.644-82.3957 111.644-78.4228L111.644 16.1888C111.644 20.307 109.21 22.7569 104.951 22.7569L39.4096 22.7569C35.1205 22.7569 32.6919 20.307 32.6919 16.1888L32.6919-78.4228C32.6919-82.3957 34.9394-84.9607 38.9569-84.9607L39.8548-84.9607C39.1395-86.5748 38.7969-88.4477 38.7969-90.4735L38.7969-96.6841C38.7969-98.4741 39.1093-100.166 39.7642-101.599L38.4981-101.599C24.4839-101.599 16.084-92.8525 16.084-78.5837L16.084 16.3497C16.084 30.7694 24.6046 39.3593 38.8 39.3593ZM52.8815-83.0917L91.4485-83.0917C95.5558-83.0917 98.0349-85.6846 98.0349-90.0742L98.0349-96.6898C98.0349-101.085 95.5558-103.672 91.4485-103.672L87.1625-103.672C86.6244-111.455 80.1818-117.679 72.1801-117.679C64.1841-117.679 57.7358-111.455 57.1675-103.672L52.8815-103.672C48.7799-103.672 46.3253-101.085 46.3253-96.6898L46.3253-90.0742C46.3253-85.6846 48.7799-83.0917 52.8815-83.0917ZM72.1801-97.3453C69.0036-97.3453 66.4158-99.9835 66.4158-103.11C66.4158-106.247 69.0036-108.805 72.1801-108.805C75.3566-108.805 77.9143-106.247 77.9143-103.11C77.9143-99.9835 75.3566-97.3453 72.1801-97.3453Z"/>
  </g>
  <g id="Bold-L" transform="matrix(1 0 0 1 2269.07 1556)">
   <path d="M46.1007-46.2342C49.459-46.2342 52.0968-48.8852 52.0968-52.2303C52.0968-55.5886 49.459-58.2396 46.1007-58.2396C42.8228-58.2396 40.1046-55.5214 40.1046-52.2303C40.1046-48.9524 42.8228-46.2342 46.1007-46.2342ZM46.1007-23.9362C49.459-23.9362 52.0968-26.574 52.0968-29.9323C52.0968-33.2614 49.4298-35.8613 46.1007-35.8613C42.7848-35.8613 40.1046-33.1942 40.1046-29.9323C40.1046-26.574 42.7556-23.9362 46.1007-23.9362ZM46.1007-0.379052C49.459-0.379052 52.0968-3.0301 52.0968-6.38839C52.0968-9.73346 49.459-12.3845 46.1007-12.3845C42.8228-12.3845 40.1046-9.66627 40.1046-6.38839C40.1046-3.09729 42.8228-0.379052 46.1007-0.379052ZM63.6037-47.349L96.9094-47.349C99.5963-47.349 101.791-49.5566 101.791-52.2303C101.791-54.9172 99.5963-57.1248 96.9094-57.1248L63.6037-57.1248C60.9169-57.1248 58.7224-54.9172 58.7224-52.2303C58.7224-49.5566 60.9169-47.349 63.6037-47.349ZM63.6037-25.051L96.9094-25.051C99.6635-25.051 101.791-27.1783 101.791-29.9323C101.791-32.6192 99.6343-34.7465 96.9094-34.7465L63.6037-34.7465C60.8789-34.7465 58.7224-32.6192 58.7224-29.9323C58.7224-27.1783 60.8497-25.051 63.6037-25.051ZM63.6037-1.49385L96.9094-1.49385C99.5963-1.49385 101.791-3.70151 101.791-6.38839C101.791-9.06205 99.6343-11.2025 96.9094-11.2025L63.6037-11.2025C60.8789-11.2025 58.7224-9.06205 58.7224-6.38839C58.7224-3.70151 60.9169-1.49385 63.6037-1.49385ZM37.4477 38.5448L104.338 38.5448C117.956 38.5448 125.74 30.7323 125.74 16.9256L125.74-78.5716C125.74-92.1883 118.095-100.204 104.756-100.204L103.034-100.204C103.481-99.11 103.685-97.8187 103.685-96.4909L103.685-90.768C103.685-89.1496 103.443-87.6304 102.933-86.3084L104.382-86.3084C109.236-86.3084 111.857-83.274 111.857-78.4108L111.857 16.7648C111.857 21.8047 109.008 24.7004 103.812 24.7004L38.0117 24.7004C32.7773 24.7004 29.9417 21.8047 29.9417 16.7648L29.9417-78.4108C29.9417-83.274 32.5494-86.3084 37.4419-86.3084L38.9034-86.3084C38.3806-87.6304 38.1382-89.1496 38.1382-90.768L38.1382-96.4909C38.1382-97.8187 38.3426-99.11 38.7895-100.204L37.0678-100.204C23.6906-100.204 16.084-92.1883 16.084-78.5716L16.084 16.9256C16.084 30.7323 23.8426 38.5448 37.4477 38.5448ZM51.5969-83.395L90.1888-83.395C94.0664-83.395 96.4079-85.8197 96.4079-89.9264L96.4079-96.5042C96.4079-100.624 94.0664-103.036 90.1888-103.036L85.2048-103.036C84.7432-110.504 78.5687-116.49 70.9118-116.49C63.2682-116.49 57.0804-110.504 56.5809-103.036L51.5969-103.036C47.7325-103.036 45.4158-100.624 45.4158-96.5042L45.4158-89.9264C45.4158-85.8197 47.7325-83.395 51.5969-83.395ZM70.9118-96.8393C67.7665-96.8393 65.2019-99.4464 65.2019-102.549C65.2019-105.679 67.7665-108.205 70.9118-108.205C74.0571-108.205 76.5838-105.679 76.5838-102.549C76.5838-99.4464 74.0571-96.8393 70.9118-96.8393Z"/>
  </g>
  <g id="Semibold-L" transform="matrix(1 0 0 1 1973.23 1556)">
   <path d="M44.5884-46.6297C47.714-46.6297 50.1774-49.1115 50.1774-52.2186C50.1774-55.3442 47.714-57.8261 44.5884-57.8261C41.5432-57.8261 38.9994-55.2823 38.9994-52.2186C38.9994-49.1735 41.5432-46.6297 44.5884-46.6297ZM44.5884-24.2371C47.714-24.2371 50.1774-26.7005 50.1774-29.826C50.1774-32.9331 47.6954-35.3531 44.5884-35.3531C41.4999-35.3531 38.9994-32.8711 38.9994-29.826C38.9994-26.7005 41.4813-24.2371 44.5884-24.2371ZM44.5884-0.564248C47.714-0.564248 50.1774-3.04611 50.1774-6.17169C50.1774-9.27879 47.714-11.7607 44.5884-11.7607C41.5432-11.7607 38.9994-9.21685 38.9994-6.17169C38.9994-3.10804 41.5432-0.564248 44.5884-0.564248ZM61.5371-47.8665L96.779-47.8665C99.1748-47.8665 101.131-49.8414 101.131-52.2186C101.131-54.6144 99.1748-56.5892 96.779-56.5892L61.5371-56.5892C59.1414-56.5892 57.185-54.6144 57.185-52.2186C57.185-49.8414 59.1414-47.8665 61.5371-47.8665ZM61.5371-25.4739L96.779-25.4739C99.2367-25.4739 101.131-27.3683 101.131-29.826C101.131-32.2218 99.2181-34.1162 96.779-34.1162L61.5371-34.1162C59.098-34.1162 57.185-32.2218 57.185-29.826C57.185-27.3683 59.0794-25.4739 61.5371-25.4739ZM61.5371-1.8011L96.779-1.8011C99.1748-1.8011 101.131-3.77592 101.131-6.17169C101.131-8.54898 99.2181-10.4619 96.779-10.4619L61.5371-10.4619C59.098-10.4619 57.185-8.54898 57.185-6.17169C57.185-3.77592 59.1414-1.8011 61.5371-1.8011ZM36.5154 37.9833L103.516 37.9833C116.733 37.9833 123.991 30.7066 123.991 17.3226L123.991-78.5633C123.991-91.7305 116.888-99.2425 103.993-99.2425L101.957-99.2425C102.261-98.382 102.391-97.3668 102.391-96.3577L102.391-90.971C102.391-89.6335 102.217-88.3581 101.846-87.2374L103.677-87.2374C109.13-87.2374 112.004-83.8796 112.004-78.4024L112.004 17.1618C112.004 22.8373 108.87 26.0402 103.027 26.0402L37.0479 26.0402C31.1619 26.0402 28.0457 22.8373 28.0457 17.1618L28.0457-78.4024C28.0457-83.8796 30.9017-87.2374 36.3974-87.2374L38.2476-87.2374C37.8574-88.3581 37.6841-89.6335 37.6841-90.971L37.6841-96.3577C37.6841-97.3668 37.8141-98.382 38.1175-99.2425L36.0818-99.2425C23.1438-99.2425 16.084-91.7305 16.084-78.5633L16.084 17.3226C16.084 30.7066 23.3172 37.9833 36.5154 37.9833ZM50.7113-83.6042L89.3203-83.6042C93.0397-83.6042 95.2862-85.9128 95.2862-89.8244L95.2862-96.3762C95.2862-100.306 93.0397-102.596 89.3203-102.596L83.8551-102.596C83.4464-109.848 77.4566-115.671 70.0375-115.671C62.6368-115.671 56.6286-109.848 56.1764-102.596L50.7113-102.596C47.0104-102.596 44.7887-100.306 44.7887-96.3762L44.7887-89.8244C44.7887-85.9128 47.0104-83.6042 50.7113-83.6042ZM70.0375-96.4904C66.9137-96.4904 64.3651-99.0761 64.3651-102.163C64.3651-105.286 66.9137-107.792 70.0375-107.792C73.1612-107.792 75.6665-105.286 75.6665-102.163C75.6665-99.0761 73.1612-96.4904 70.0375-96.4904Z"/>
  </g>
  <g id="Medium-L" transform="matrix(1 0 0 1 1677.18 1556)">
   <path d="M43.4417-46.9296C46.3909-46.9296 48.722-49.2831 48.722-52.2098C48.722-55.1589 46.3909-57.5125 43.4417-57.5125C40.573-57.5125 38.1615-55.101 38.1615-52.2098C38.1615-49.3411 40.573-46.9296 43.4417-46.9296ZM43.4417-24.4652C46.3909-24.4652 48.722-26.7963 48.722-29.7454C48.722-32.6841 46.3803-34.9677 43.4417-34.9677C40.5256-34.9677 38.1615-32.6261 38.1615-29.7454C38.1615-26.7963 40.515-24.4652 43.4417-24.4652ZM43.4417-0.704671C46.3909-0.704671 48.722-3.05824 48.722-6.00738C48.722-8.93404 46.3909-11.2876 43.4417-11.2876C40.573-11.2876 38.1615-8.87609 38.1615-6.00738C38.1615-3.1162 40.573-0.704671 43.4417-0.704671ZM59.9702-48.259L96.6801-48.259C98.8552-48.259 100.631-50.0572 100.631-52.2098C100.631-54.3849 98.8552-56.1831 96.6801-56.1831L59.9702-56.1831C57.7951-56.1831 56.0193-54.3849 56.0193-52.2098C56.0193-50.0572 57.7951-48.259 59.9702-48.259ZM59.9702-25.7946L96.6801-25.7946C98.9131-25.7946 100.631-27.5124 100.631-29.7454C100.631-31.9205 98.9026-33.6383 96.6801-33.6383L59.9702-33.6383C57.7477-33.6383 56.0193-31.9205 56.0193-29.7454C56.0193-27.5124 57.7372-25.7946 59.9702-25.7946ZM59.9702-2.03407L96.6801-2.03407C98.8552-2.03407 100.631-3.83234 100.631-6.00738C100.631-8.15995 98.9026-9.90026 96.6801-9.90026L59.9702-9.90026C57.7477-9.90026 56.0193-8.15995 56.0193-6.00738C56.0193-3.83234 57.7951-2.03407 59.9702-2.03407ZM35.8086 37.5576L102.893 37.5576C115.805 37.5576 122.665 30.6872 122.665 17.6237L122.665-78.557C122.665-91.3833 115.972-98.5134 103.415-98.5134L101.141-98.5134C101.336-97.83 101.409-97.0242 101.409-96.2568L101.409-91.1249C101.409-90.0004 101.288-88.9099 101.021-87.9419L103.143-87.9419C109.049-87.9419 112.116-84.3387 112.116-78.3961L112.116 17.4628C112.116 23.6202 108.764 27.056 102.432 27.056L36.3171 27.056C29.937 27.056 26.608 23.6202 26.608 17.4628L26.608-78.3961C26.608-84.3387 29.6524-87.9419 35.6055-87.9419L37.7503-87.9419C37.4608-88.9099 37.3397-90.0004 37.3397-91.1249L37.3397-96.2568C37.3397-97.0242 37.4133-97.83 37.6079-98.5134L35.3341-98.5134C22.7291-98.5134 16.084-91.3833 16.084-78.557L16.084 17.6237C16.084 30.6872 22.9189 37.5576 35.8086 37.5576ZM50.0397-83.7628L88.6618-83.7628C92.2611-83.7628 94.4357-85.9834 94.4357-89.7471L94.4357-96.2792C94.4357-100.065 92.2611-102.264 88.6618-102.264L82.8318-102.264C82.463-109.351 76.6134-115.049 69.3745-115.049C62.1581-115.049 56.286-109.351 55.8697-102.264L50.0397-102.264C46.4629-102.264 44.3133-100.065 44.3133-96.2792L44.3133-89.7471C44.3133-85.9834 46.4629-83.7628 50.0397-83.7628ZM69.3745-96.2259C66.267-96.2259 63.7305-98.7953 63.7305-101.87C63.7305-104.989 66.267-107.478 69.3745-107.478C72.4819-107.478 74.971-104.989 74.971-101.87C74.971-98.7953 72.4819-96.2259 69.3745-96.2259Z"/>
  </g>
  <g id="Regular-L" transform="matrix(1 0 0 1 1381.33 1556)">
   <path d="M41.946-47.3207C44.665-47.3207 46.8236-49.507 46.8236-52.1983C46.8236-54.9173 44.665-57.1035 41.946-57.1035C39.3075-57.1035 37.0685-54.8645 37.0685-52.1983C37.0685-49.5597 39.3075-47.3207 41.946-47.3207ZM41.946-24.7627C44.665-24.7627 46.8236-26.9213 46.8236-29.6403C46.8236-32.3593 44.665-34.4651 41.946-34.4651C39.2547-34.4651 37.0685-32.3065 37.0685-29.6403C37.0685-26.9213 39.2547-24.7627 41.946-24.7627ZM41.946-0.887833C44.665-0.887833 46.8236-3.07408 46.8236-5.79305C46.8236-8.48437 44.665-10.6706 41.946-10.6706C39.3075-10.6706 37.0685-8.43161 37.0685-5.79305C37.0685-3.12684 39.3075-0.887833 41.946-0.887833ZM57.9263-48.7708L96.5512-48.7708C98.4383-48.7708 99.9786-50.3388 99.9786-52.1983C99.9786-54.0854 98.4383-55.6534 96.5512-55.6534L57.9263-55.6534C56.0391-55.6534 54.4988-54.0854 54.4988-52.1983C54.4988-50.3388 56.0391-48.7708 57.9263-48.7708ZM57.9263-26.2129L96.5512-26.2129C98.4911-26.2129 99.9786-27.7004 99.9786-29.6403C99.9786-31.5274 98.4911-33.015 96.5512-33.015L57.9263-33.015C55.9864-33.015 54.4988-31.5274 54.4988-29.6403C54.4988-27.7004 55.9864-26.2129 57.9263-26.2129ZM57.9263-2.33794L96.5512-2.33794C98.4383-2.33794 99.9786-3.90593 99.9786-5.79305C99.9786-7.65252 98.4911-9.16775 96.5512-9.16775L57.9263-9.16775C55.9864-9.16775 54.4988-7.65252 54.4988-5.79305C54.4988-3.90593 56.0391-2.33794 57.9263-2.33794ZM34.8866 37.0023L102.08 37.0023C114.595 37.0023 120.935 30.6619 120.935 18.0163L120.935-78.5488C120.935-90.9305 114.778-97.5624 102.661-97.5624L100.076-97.5624C100.129-97.1101 100.129-96.5773 100.129-96.125L100.129-91.3257C100.129-90.479 100.076-89.6297 99.9455-88.8608L102.447-88.8608C108.944-88.8608 112.262-84.9376 112.262-78.3879L112.262 17.8555C112.262 24.6414 108.627 28.3811 101.655 28.3811L35.364 28.3811C28.3394 28.3811 24.7328 24.6414 24.7328 17.8555L24.7328-78.3879C24.7328-84.9376 28.0228-88.8608 34.5725-88.8608L37.1016-88.8608C36.9433-89.6297 36.8906-90.479 36.8906-91.3257L36.8906-96.125C36.8906-96.5773 36.8906-97.1101 36.9433-97.5624L34.3589-97.5624C22.1882-97.5624 16.084-90.9305 16.084-78.5488L16.084 18.0163C16.084 30.6619 22.3993 37.0023 34.8866 37.0023ZM49.1638-83.9697L87.8029-83.9697C91.2456-83.9697 93.3263-86.0755 93.3263-89.6463L93.3263-96.1527C93.3263-99.7512 91.2456-101.829 87.8029-101.829L81.497-101.829C81.1804-108.703 75.5135-114.239 68.5097-114.239C61.5336-114.239 55.8391-108.703 55.4697-101.829L49.1638-101.829C45.7487-101.829 43.6931-99.7512 43.6931-96.1527L43.6931-89.6463C43.6931-86.0755 45.7487-83.9697 49.1638-83.9697ZM68.5097-95.8808C65.4236-95.8808 62.9029-98.4292 62.9029-101.488C62.9029-104.601 65.4236-107.069 68.5097-107.069C71.5959-107.069 74.0638-104.601 74.0638-101.488C74.0638-98.4292 71.5959-95.8808 68.5097-95.8808Z"/>
  </g>
  <g id="Light-L" transform="matrix(1 0 0 1 1085.41 1556)">
   <path d="M41.2017-48.2559C43.5772-48.2559 45.4495-50.175 45.4495-52.5037C45.4495-54.8791 43.5772-56.7981 41.2017-56.7981C38.9067-56.7981 36.954-54.8454 36.954-52.5037C36.954-50.2086 38.9067-48.2559 41.2017-48.2559ZM41.2017-25.3926C43.5772-25.3926 45.4495-27.2649 45.4495-29.6403C45.4495-32.0157 43.5772-33.8544 41.2017-33.8544C38.873-33.8544 36.954-31.9821 36.954-29.6403C36.954-27.2649 38.873-25.3926 41.2017-25.3926ZM41.2017-1.13594C43.5772-1.13594 45.4495-3.05499 45.4495-5.43043C45.4495-7.75913 43.5772-9.67818 41.2017-9.67818C38.9067-9.67818 36.954-7.72546 36.954-5.43043C36.954-3.08867 38.9067-1.13594 41.2017-1.13594ZM56.0559-49.7633L95.8068-49.7633C97.3313-49.7633 98.5472-51.0259 98.5472-52.5037C98.5472-54.0282 97.3313-55.2908 95.8068-55.2908L56.0559-55.2908C54.5314-55.2908 53.3155-54.0282 53.3155-52.5037C53.3155-51.0259 54.5314-49.7633 56.0559-49.7633ZM56.0559-26.8999L95.8068-26.8999C97.365-26.8999 98.5472-28.0821 98.5472-29.6403C98.5472-31.1648 97.365-32.347 95.8068-32.347L56.0559-32.347C54.4977-32.347 53.3155-31.1648 53.3155-29.6403C53.3155-28.0821 54.4977-26.8999 56.0559-26.8999ZM56.0559-2.64331L95.8068-2.64331C97.3313-2.64331 98.5472-3.90593 98.5472-5.43043C98.5472-6.90819 97.365-8.13714 95.8068-8.13714L56.0559-8.13714C54.4977-8.13714 53.3155-6.90819 53.3155-5.43043C53.3155-3.90593 54.5314-2.64331 56.0559-2.64331ZM33.9323 36.4297L101.488 36.4297C113.316 36.4297 119.37 30.3756 119.37 18.4935L119.37-79.4458C119.37-91.1595 113.404-97.4288 101.859-97.4288L97.824-97.4288C97.8577-97.0528 97.8577-96.5964 97.8577-96.2205L97.8577-92.6044C97.8577-92.0058 97.824-91.3473 97.7698-90.7693L101.664-90.7693C108.982-90.7693 112.758-86.6362 112.758-79.2849L112.758 18.3326C112.758 25.8056 108.78 29.8507 101.159 29.8507L34.2952 29.8507C26.6408 29.8507 22.7098 25.8056 22.7098 18.3326L22.7098-79.2849C22.7098-86.6362 26.4387-90.7693 33.79-90.7693L37.7314-90.7693C37.6304-91.3473 37.5967-92.0058 37.5967-92.6044L37.5967-96.2205C37.5967-96.5964 37.5967-97.0528 37.6304-97.4288L33.5955-97.4288C22.0165-97.4288 16.084-91.1595 16.084-79.4458L16.084 18.4935C16.084 30.3756 22.1512 36.4297 33.9323 36.4297ZM48.5722-85.0003L86.8486-85.0003C89.9478-85.0003 91.7995-86.8389 91.7995-89.9326L91.7995-96.2672C91.7995-99.4076 89.9478-101.2 86.8486-101.2L79.7984-101.2C79.5963-107.71 74.2921-112.96 67.7272-112.96C61.2091-112.96 55.8582-107.71 55.6224-101.2L48.5722-101.2C45.5197-101.2 43.655-99.4076 43.655-96.2672L43.655-89.9326C43.655-86.8389 45.5197-85.0003 48.5722-85.0003ZM67.7272-95.3083C64.5647-95.3083 62.025-97.8948 62.025-101.011C62.025-104.22 64.5647-106.726 67.7272-106.726C70.8897-106.726 73.3958-104.22 73.3958-101.011C73.3958-97.8948 70.8897-95.3083 67.7272-95.3083Z"/>
  </g>
  <g id="Thin-L" transform="matrix(1 0 0 1 789.73 1556)">
   <path d="M40.2173-49.4928C42.1384-49.4928 43.6321-51.0584 43.6321-52.9075C43.6321-54.8286 42.1384-56.3943 40.2173-56.3943C38.3766-56.3943 36.8025-54.8202 36.8025-52.9075C36.8025-51.0669 38.3766-49.4928 40.2173-49.4928ZM40.2173-26.2255C42.1384-26.2255 43.6321-27.7192 43.6321-29.6403C43.6321-31.5614 42.1384-33.0466 40.2173-33.0466C38.3682-33.0466 36.8025-31.553 36.8025-29.6403C36.8025-27.7192 38.3682-26.2255 40.2173-26.2255ZM40.2173-1.46408C42.1384-1.46408 43.6321-3.02975 43.6321-4.95084C43.6321-6.79994 42.1384-8.36561 40.2173-8.36561C38.3766-8.36561 36.8025-6.79151 36.8025-4.95084C36.8025-3.03819 38.3766-1.46408 40.2173-1.46408ZM53.5822-51.0758L94.8224-51.0758C95.8673-51.0758 96.6541-51.9346 96.6541-52.9075C96.6541-53.9524 95.8673-54.8112 94.8224-54.8112L53.5822-54.8112C52.5373-54.8112 51.7505-53.9524 51.7505-52.9075C51.7505-51.9346 52.5373-51.0758 53.5822-51.0758ZM53.5822-27.8086L94.8224-27.8086C95.8758-27.8086 96.6541-28.587 96.6541-29.6403C96.6541-30.6852 95.8758-31.4636 94.8224-31.4636L53.5822-31.4636C52.5289-31.4636 51.7505-30.6852 51.7505-29.6403C51.7505-28.587 52.5289-27.8086 53.5822-27.8086ZM53.5822-3.04717L94.8224-3.04717C95.8673-3.04717 96.6541-3.90593 96.6541-4.95084C96.6541-5.92376 95.8758-6.77408 94.8224-6.77408L53.5822-6.77408C52.5289-6.77408 51.7505-5.92376 51.7505-4.95084C51.7505-3.90593 52.5373-3.04717 53.5822-3.04717ZM32.6702 35.6725L100.706 35.6725C111.625 35.6725 117.301 29.997 117.301 19.1245L117.301-80.6321C117.301-91.4624 111.587-97.2521 100.799-97.2521L94.8455-97.2521C94.854-96.9771 94.854-96.6217 94.854-96.3467L94.854-94.2956C94.854-94.0251 94.8455-93.6191 94.8922-93.2935L100.63-93.2935C109.033-93.2935 113.414-88.8828 113.414-80.4713L113.414 18.9637C113.414 27.3453 108.982 31.7943 100.503 31.7943L32.8817 31.7943C24.3943 31.7943 20.0342 27.3453 20.0342 18.9637L20.0342-80.4713C20.0342-88.8828 24.3437-93.2935 32.7551-93.2935L38.5644-93.2935C38.5391-93.6191 38.5307-94.0251 38.5307-94.2956L38.5307-96.3467C38.5307-96.6217 38.5307-96.9771 38.5391-97.2521L32.5858-97.2521C21.7893-97.2521 16.084-91.4624 16.084-80.6321L16.084 19.1245C16.084 29.997 21.823 35.6725 32.6702 35.6725ZM47.7897-86.3633L85.5865-86.3633C88.2314-86.3633 89.7802-87.8486 89.7802-90.3112L89.7802-96.4186C89.7802-98.9533 88.2314-100.367 85.5865-100.367L77.5518-100.367C77.5012-106.397 72.6766-111.269 66.6923-111.269C60.78-111.269 55.8834-106.397 55.8244-100.367L47.7897-100.367C45.2168-100.367 43.6045-98.9533 43.6045-96.4186L43.6045-90.3112C43.6045-87.8486 45.2168-86.3633 47.7897-86.3633ZM66.6923-94.551C63.4288-94.551 60.8638-97.188 60.8638-100.379C60.8638-103.715 63.4288-106.272 66.6923-106.272C69.9558-106.272 72.5124-103.715 72.5124-100.379C72.5124-97.188 69.9558-94.551 66.6923-94.551Z"/>
  </g>
  <g id="Ultralight-L" transform="matrix(1 0 0 1 493.549 1556)">
   <path d="M39.7131-50.1263C41.4014-50.1263 42.7012-51.5109 42.7012-53.1144C42.7012-54.8028 41.4014-56.1874 39.7131-56.1874C38.1051-56.1874 36.7249-54.8073 36.7249-53.1144C36.7249-51.5064 38.1051-50.1263 39.7131-50.1263ZM39.7131-26.6522C41.4014-26.6522 42.7012-27.9519 42.7012-29.6403C42.7012-31.3287 41.4014-32.6329 39.7131-32.6329C38.1096-32.6329 36.7249-31.3332 36.7249-29.6403C36.7249-27.9519 38.1096-26.6522 39.7131-26.6522ZM39.7131-1.63216C41.4014-1.63216 42.7012-3.01682 42.7012-4.70519C42.7012-6.30865 41.4014-7.69331 39.7131-7.69331C38.1051-7.69331 36.7249-6.31314 36.7249-4.70519C36.7249-3.01233 38.1051-1.63216 39.7131-1.63216ZM52.3152-51.7481L94.3182-51.7481C95.1175-51.7481 95.6844-52.4 95.6844-53.1144C95.6844-53.9136 95.1175-54.5655 94.3182-54.5655L52.3152-54.5655C51.5159-54.5655 50.949-53.9136 50.949-53.1144C50.949-52.4 51.5159-51.7481 52.3152-51.7481ZM52.3152-28.2741L94.3182-28.2741C95.113-28.2741 95.6844-28.8455 95.6844-29.6403C95.6844-30.4396 95.113-31.011 94.3182-31.011L52.3152-31.011C51.5204-31.011 50.949-30.4396 50.949-29.6403C50.949-28.8455 51.5204-28.2741 52.3152-28.2741ZM52.3152-3.25403L94.3182-3.25403C95.1175-3.25403 95.6844-3.90593 95.6844-4.70519C95.6844-5.41954 95.113-6.07593 94.3182-6.07593L52.3152-6.07593C51.5204-6.07593 50.949-5.41954 50.949-4.70519C50.949-3.90593 51.5159-3.25403 52.3152-3.25403ZM32.0238 35.2846L100.305 35.2846C110.759 35.2846 116.24 29.803 116.24 19.4477L116.24-81.2398C116.24-91.6176 110.656-97.1616 100.256-97.1616L93.3199-97.1616C93.3154-96.9383 93.3154-96.6346 93.3154-96.4113L93.3154-95.1619C93.3154-95.0594 93.3199-94.7827 93.4183-94.5863L100.099-94.5863C109.058-94.5863 113.75-90.0334 113.75-81.0789L113.75 19.2869C113.75 28.134 109.085 32.7898 100.167 32.7898L32.1576 32.7898C23.2436 32.7898 18.6637 28.134 18.6637 19.2869L18.6637-81.0789C18.6637-90.0334 23.2706-94.5863 32.225-94.5863L38.9911-94.5863C39.0046-94.7827 39.009-95.0594 39.009-95.1619L39.009-96.4113C39.009-96.6346 39.009-96.9383 39.0046-97.1616L32.0687-97.1616C21.6729-97.1616 16.084-91.6176 16.084-81.2398L16.084 19.4477C16.084 29.803 21.655 35.2846 32.0238 35.2846ZM47.3889-87.0615L84.9401-87.0615C87.3522-87.0615 88.7459-88.3657 88.7459-90.5052L88.7459-96.4962C88.7459-98.7206 87.3522-99.9399 84.9401-99.9399L76.4012-99.9399C76.4281-105.725 71.8491-110.403 66.1622-110.403C60.5602-110.403 55.8963-105.725 55.9278-99.9399L47.3889-99.9399C45.0617-99.9399 43.5786-98.7206 43.5786-96.4962L43.5786-90.5052C43.5786-88.3657 45.0617-87.0615 47.3889-87.0615ZM66.1622-94.1631C62.8471-94.1631 60.2691-96.826 60.2691-100.056C60.2691-103.456 62.8471-106.039 66.1622-106.039C69.4774-106.039 72.0598-103.456 72.0598-100.056C72.0598-96.826 69.4774-94.1631 66.1622-94.1631Z"/>
  </g>
  <g id="Black-M" transform="matrix(1 0 0 1 2875.89 1126)">
   <path d="M40.3669-42.791C43.6064-42.791 46.1183-45.3026 46.1183-48.5424C46.1183-51.782 43.6064-54.2936 40.3669-54.2936C37.1897-54.2936 34.6155-51.7194 34.6155-48.5424C34.6155-45.3652 37.1897-42.791 40.3669-42.791ZM40.3669-25.7189C43.6064-25.7189 46.1183-28.2307 46.1183-31.4703C46.1183-34.6527 43.5493-37.1591 40.3669-37.1591C37.1842-37.1591 34.6155-34.5901 34.6155-31.4703C34.6155-28.2307 37.1271-25.7189 40.3669-25.7189ZM40.3669-7.71328C43.6064-7.71328 46.1183-10.2249 46.1183-13.4644C46.1183-16.7042 43.6064-19.2158 40.3669-19.2158C37.1897-19.2158 34.6155-16.6416 34.6155-13.4644C34.6155-10.2874 37.1897-7.71328 40.3669-7.71328ZM55.3415-43.2784L75.2493-43.2784C78.1515-43.2784 80.5133-45.6399 80.5133-48.5424C80.5133-51.4447 78.1515-53.8062 75.2493-53.8062L55.3415-53.8062C52.4393-53.8062 50.0775-51.4447 50.0775-48.5424C50.0775-45.6399 52.4393-43.2784 55.3415-43.2784ZM55.3415-26.2062L75.2493-26.2062C78.2141-26.2062 80.5133-28.5054 80.5133-31.4703C80.5133-34.3725 78.157-36.6717 75.2493-36.6717L55.3415-36.6717C52.4338-36.6717 50.0775-34.3725 50.0775-31.4703C50.0775-28.5054 52.3767-26.2062 55.3415-26.2062ZM55.3415-8.20065L75.2493-8.20065C78.1515-8.20065 80.5133-10.5621 80.5133-13.4644C80.5133-16.3669 78.157-18.6658 75.2493-18.6658L55.3415-18.6658C52.4338-18.6658 50.0775-16.3669 50.0775-13.4644C50.0775-10.5621 52.4393-8.20065 55.3415-8.20065ZM31.7106 23.5525L83.2987 23.5525C94.9181 23.5525 102.554 15.8595 102.554 4.05214L102.554-69.1407C102.554-80.9206 94.9403-88.6408 83.3592-88.6408L82.5501-88.6408C83.3549-87.0616 83.7546-85.1917 83.7546-83.1557L83.7546-78.0344C83.7546-75.9542 83.3494-74.0514 82.5333-72.4392L82.8865-72.4392C84.988-72.4392 86.3521-71.0661 86.3521-69.0161L86.3521 3.92753C86.3521 6.00523 84.9551 7.35617 82.8041 7.35617L32.2108 7.35617C30.0543 7.35617 28.657 6.00523 28.657 3.92753L28.657-69.0161C28.657-71.0661 30.0213-72.4392 32.1284-72.4392L32.4813-72.4392C31.6655-74.0514 31.2603-75.9542 31.2603-78.0344L31.2603-83.1557C31.2603-85.1917 31.66-87.0616 32.4648-88.6408L31.6557-88.6408C20.0691-88.6408 12.4609-80.9206 12.4609-69.1407L12.4609 4.05214C12.4609 15.8595 20.091 23.5525 31.7106 23.5525ZM42.6448-72.2179L72.3645-72.2179C75.7651-72.2179 77.809-74.3817 77.809-78.0335L77.809-83.1554C77.809-86.807 75.7651-88.971 72.3645-88.971L69.8103-88.971C69.3206-95.3365 64.061-100.408 57.5074-100.408C50.9536-100.408 45.6943-95.3365 45.1991-88.971L42.6448-88.971C39.244-88.971 37.2059-86.807 37.2059-83.1554L37.2059-78.0335C37.2059-74.3817 39.244-72.2179 42.6448-72.2179ZM57.5074-83.8977C54.9749-83.8977 52.9296-85.9998 52.9296-88.4755C52.9296-90.9507 54.9749-92.9905 57.5074-92.9905C60.04-92.9905 62.0798-90.9507 62.0798-88.4755C62.0798-85.9998 60.04-83.8977 57.5074-83.8977Z"/>
  </g>
  <g id="Heavy-M" transform="matrix(1 0 0 1 2580.12 1126)">
   <path d="M38.6098-43.0915C41.6281-43.0915 43.9804-45.446 43.9804-48.4621C43.9804-51.4804 41.6281-53.8349 38.6098-53.8349C35.6538-53.8349 33.2392-51.4204 33.2392-48.4621C33.2392-45.506 35.6538-43.0915 38.6098-43.0915ZM38.6098-25.965C41.6281-25.965 43.9804-28.3172 43.9804-31.3355C43.9804-34.3103 41.5845-36.6461 38.6098-36.6461C35.6373-36.6461 33.2392-34.2502 33.2392-31.3355C33.2392-28.3172 35.5937-25.965 38.6098-25.965ZM38.6098-7.89474C41.6281-7.89474 43.9804-10.2493 43.9804-13.2676C43.9804-16.2837 41.6281-18.6382 38.6098-18.6382C35.6538-18.6382 33.2392-16.2236 33.2392-13.2676C33.2392-10.3093 35.6538-7.89474 38.6098-7.89474ZM53.1237-43.7213L75.2439-43.7213C77.855-43.7213 79.9847-45.8532 79.9847-48.4621C79.9847-51.0732 77.855-53.2051 75.2439-53.2051L53.1237-53.2051C50.5125-53.2051 48.3829-51.0732 48.3829-48.4621C48.3829-45.8532 50.5125-43.7213 53.1237-43.7213ZM53.1237-26.5947L75.2439-26.5947C77.915-26.5947 79.9847-28.6644 79.9847-31.3355C79.9847-33.9467 77.8714-36.0163 75.2439-36.0163L53.1237-36.0163C50.4961-36.0163 48.3829-33.9467 48.3829-31.3355C48.3829-28.6644 50.4525-26.5947 53.1237-26.5947ZM53.1237-8.52453L75.2439-8.52453C77.855-8.52453 79.9847-10.6565 79.9847-13.2676C79.9847-15.8764 77.8714-17.9484 75.2439-17.9484L53.1237-17.9484C50.4961-17.9484 48.3829-15.8764 48.3829-13.2676C48.3829-10.6565 50.5125-8.52453 53.1237-8.52453ZM30.7339 22.9637L82.3841 22.9637C93.6418 22.9637 100.673 15.8885 100.673 4.45293L100.673-68.9375C100.673-80.291 93.7052-87.4506 82.5646-87.4506L81.6689-87.4506C82.2961-86.1511 82.6014-84.6148 82.6014-82.9664L82.6014-78.0171C82.6014-76.2396 82.2796-74.6049 81.622-73.207L82.1618-73.207C84.8449-73.207 86.4321-71.4688 86.4321-68.8129L86.4321 4.32832C86.4321 7.064 84.7465 8.73882 81.9157 8.73882L31.2187 8.73882C28.3715 8.73882 26.6881 7.064 26.6881 4.32832L26.6881-68.8129C26.6881-71.4688 28.273-73.207 30.9725-73.207L31.5146-73.207C30.8547-74.6049 30.5329-76.2396 30.5329-78.0171L30.5329-82.9664C30.5329-84.6148 30.8383-86.1511 31.4654-87.4506L30.5698-87.4506C19.4128-87.4506 12.4609-80.291 12.4609-68.9375L12.4609 4.45293C12.4609 15.8885 19.4784 22.9637 30.7339 22.9637ZM41.6493-72.2616L71.4686-72.2616C74.7424-72.2616 76.7151-74.3357 76.7151-77.8428L76.7151-82.9687C76.7151-86.478 74.7424-88.5498 71.4686-88.5498L68.4643-88.5498C68.0169-94.7184 62.9137-99.6439 56.5672-99.6439C50.223-99.6439 45.1175-94.7184 44.6536-88.5498L41.6493-88.5498C38.3778-88.5498 36.4193-86.478 36.4193-82.9687L36.4193-77.8428C36.4193-74.3357 38.3778-72.2616 41.6493-72.2616ZM56.5672-83.5784C54.0783-83.5784 52.0574-85.6453 52.0574-88.0882C52.0574-90.5357 54.0783-92.5403 56.5672-92.5403C59.056-92.5403 61.0606-90.5357 61.0606-88.0882C61.0606-85.6453 59.056-83.5784 56.5672-83.5784Z"/>
  </g>
  <g id="Bold-M" transform="matrix(1 0 0 1 2284.46 1126)">
   <path d="M36.6442-43.4276C39.4151-43.4276 41.5888-45.6064 41.5888-48.3722C41.5888-51.1431 39.4151-53.3219 36.6442-53.3219C33.9356-53.3219 31.6996-51.0859 31.6996-48.3722C31.6996-45.6636 33.9356-43.4276 36.6442-43.4276ZM36.6442-26.2402C39.4151-26.2402 41.5888-28.4139 41.5888-31.1848C41.5888-33.9272 39.3866-36.0722 36.6442-36.0722C33.907-36.0722 31.6996-33.87 31.6996-31.1848C31.6996-28.4139 33.8784-26.2402 36.6442-26.2402ZM36.6442-8.09773C39.4151-8.09773 41.5888-10.2765 41.5888-13.0474C41.5888-15.8132 39.4151-17.992 36.6442-17.992C33.9356-17.992 31.6996-15.756 31.6996-13.0474C31.6996-10.3337 33.9356-8.09773 36.6442-8.09773ZM50.6426-44.2167L75.2378-44.2167C77.5233-44.2167 79.3933-46.0919 79.3933-48.3722C79.3933-50.6576 77.5233-52.5328 75.2378-52.5328L50.6426-52.5328C48.3572-52.5328 46.4872-50.6576 46.4872-48.3722C46.4872-46.0919 48.3572-44.2167 50.6426-44.2167ZM50.6426-27.0293L75.2378-27.0293C77.5805-27.0293 79.3933-28.8422 79.3933-31.1848C79.3933-33.4703 77.5519-35.2831 75.2378-35.2831L50.6426-35.2831C48.3286-35.2831 46.4872-33.4703 46.4872-31.1848C46.4872-28.8422 48.3-27.0293 50.6426-27.0293ZM50.6426-8.88683L75.2378-8.88683C77.5233-8.88683 79.3933-10.762 79.3933-13.0474C79.3933-15.3278 77.5519-17.1457 75.2378-17.1457L50.6426-17.1457C48.3286-17.1457 46.4872-15.3278 46.4872-13.0474C46.4872-10.762 48.3572-8.88683 50.6426-8.88683ZM29.6412 22.3051L81.3608 22.3051C92.2142 22.3051 98.5698 15.921 98.5698 4.90127L98.5698-68.7101C98.5698-79.5867 92.3235-86.1191 81.6757-86.1191L80.6833-86.1191C81.1116-85.1326 81.3114-83.9695 81.3114-82.7546L81.3114-77.9977C81.3114-76.5589 81.083-75.2241 80.6026-74.0658L81.3512-74.0658C84.6848-74.0658 86.5215-71.9193 86.5215-68.5855L86.5215 4.77666C86.5215 8.24839 84.5131 10.2855 80.9218 10.2855L30.1089 10.2855C26.489 10.2855 24.4857 8.24839 24.4857 4.77666L24.4857-68.5855C24.4857-71.9193 26.3172-74.0658 29.6795-74.0658L30.4333-74.0658C29.9477-75.2241 29.7193-76.5589 29.7193-77.9977L29.7193-82.7546C29.7193-83.9695 29.9191-85.1326 30.3474-86.1191L29.355-86.1191C18.6786-86.1191 12.4609-79.5867 12.4609-68.7101L12.4609 4.90127C12.4609 15.921 18.7931 22.3051 29.6412 22.3051ZM40.5356-72.3106L70.4664-72.3106C73.5983-72.3106 75.4914-74.2843 75.4914-77.6294L75.4914-82.7597C75.4914-86.1099 73.5983-88.0786 70.4664-88.0786L66.9587-88.0786C66.5585-94.0271 61.6302-98.789 55.5154-98.789C49.4056-98.789 44.4722-94.0271 44.0434-88.0786L40.5356-88.0786C37.409-88.0786 35.5393-86.1099 35.5393-82.7597L35.5393-77.6294C35.5393-74.2843 37.409-72.3106 40.5356-72.3106ZM55.5154-83.2213C53.0754-83.2213 51.0817-85.2486 51.0817-87.655C51.0817-90.0715 53.0754-92.0366 55.5154-92.0366C57.9554-92.0366 59.9204-90.0715 59.9204-87.655C59.9204-85.2486 57.9554-83.2213 55.5154-83.2213Z"/>
  </g>
  <g id="Semibold-M" transform="matrix(1 0 0 1 1988.48 1126)">
   <path d="M35.2891-43.6593C37.8895-43.6593 39.94-45.717 39.94-48.3102C39.94-50.9105 37.8895-52.9682 35.2891-52.9682C32.7511-52.9682 30.6383-50.8553 30.6383-48.3102C30.6383-45.7722 32.7511-43.6593 35.2891-43.6593ZM35.2891-26.43C37.8895-26.43 39.94-28.4806 39.94-31.0809C39.94-33.663 37.8713-35.6766 35.2891-35.6766C32.7141-35.6766 30.6383-33.6078 30.6383-31.0809C30.6383-28.4806 32.6959-26.43 35.2891-26.43ZM35.2891-8.23767C37.8895-8.23767 39.94-10.2954 39.94-12.8957C39.94-15.4889 37.8895-17.5466 35.2891-17.5466C32.7511-17.5466 30.6383-15.4337 30.6383-12.8957C30.6383-10.3505 32.7511-8.23767 35.2891-8.23767ZM48.9322-44.5582L75.2337-44.5582C77.2946-44.5582 78.9856-46.2564 78.9856-48.3102C78.9856-50.3712 77.2946-52.0693 75.2337-52.0693L48.9322-52.0693C46.8713-52.0693 45.1803-50.3712 45.1803-48.3102C45.1803-46.2564 46.8713-44.5582 48.9322-44.5582ZM48.9322-27.3289L75.2337-27.3289C77.3498-27.3289 78.9856-28.9647 78.9856-31.0809C78.9856-33.1418 77.3317-34.7776 75.2337-34.7776L48.9322-34.7776C46.8342-34.7776 45.1803-33.1418 45.1803-31.0809C45.1803-28.9647 46.8161-27.3289 48.9322-27.3289ZM48.9322-9.1366L75.2337-9.1366C77.2946-9.1366 78.9856-10.8347 78.9856-12.8957C78.9856-14.9495 77.3317-16.5924 75.2337-16.5924L48.9322-16.5924C46.8342-16.5924 45.1803-14.9495 45.1803-12.8957C45.1803-10.8347 46.8713-9.1366 48.9322-9.1366ZM28.888 21.8511L80.6554 21.8511C91.2299 21.8511 97.1195 15.9434 97.1195 5.21035L97.1195-68.5534C97.1195-79.1012 91.371-85.2013 81.0629-85.2013L80.0038-85.2013C80.295-84.4304 80.4221-83.5247 80.4221-82.6086L80.4221-77.9843C80.4221-76.779 80.258-75.6509 79.8998-74.6578L80.7923-74.6578C84.5745-74.6578 86.5832-72.2299 86.5832-68.4288L86.5832 5.08574C86.5832 9.06491 84.3522 11.3518 80.2367 11.3518L29.3438 11.3518C25.1912 11.3518 22.9673 9.06491 22.9673 5.08574L22.9673-68.4288C22.9673-72.2299 24.9689-74.6578 28.7882-74.6578L29.6878-74.6578C29.3225-75.6509 29.1584-76.779 29.1584-77.9843L29.1584-82.6086C29.1584-83.5247 29.2855-84.4304 29.5767-85.2013L28.5176-85.2013C18.1724-85.2013 12.4609-79.1012 12.4609-68.5534L12.4609 5.21035C12.4609 15.9434 18.3206 21.8511 28.888 21.8511ZM39.7679-72.3443L69.7755-72.3443C72.8095-72.3443 74.6478-74.2489 74.6478-77.4823L74.6478-82.6157C74.6478-85.8562 72.8095-87.7537 69.7755-87.7537L65.9207-87.7537C65.5532-93.5504 60.7455-98.1997 54.7902-98.1997C48.8421-98.1997 44.0273-93.5504 43.6227-87.7537L39.7679-87.7537C36.741-87.7537 34.9326-85.8562 34.9326-82.6157L34.9326-77.4823C34.9326-74.2489 36.741-72.3443 39.7679-72.3443ZM54.7902-82.9751C52.3839-82.9751 50.409-84.9752 50.409-87.3563C50.409-89.7515 52.3839-91.6894 54.7902-91.6894C57.1966-91.6894 59.1344-89.7515 59.1344-87.3563C59.1344-84.9752 57.1966-82.9751 54.7902-82.9751Z"/>
  </g>
  <g id="Medium-M" transform="matrix(1 0 0 1 1692.32 1126)">
   <path d="M34.2617-43.835C36.7327-43.835 38.6899-45.8008 38.6899-48.2632C38.6899-50.7342 36.7327-52.7 34.2617-52.7C31.853-52.7 29.8335-50.6805 29.8335-48.2632C29.8335-45.8545 31.853-43.835 34.2617-43.835ZM34.2617-26.5739C36.7327-26.5739 38.6899-28.5311 38.6899-31.0021C38.6899-33.4628 36.7224-35.3766 34.2617-35.3766C31.8096-35.3766 29.8335-33.4091 29.8335-31.0021C29.8335-28.5311 31.7993-26.5739 34.2617-26.5739ZM34.2617-8.34378C36.7327-8.34378 38.6899-10.3096 38.6899-12.7806C38.6899-15.243 36.7327-17.2088 34.2617-17.2088C31.853-17.2088 29.8335-15.1893 29.8335-12.7806C29.8335-10.3633 31.853-8.34378 34.2617-8.34378ZM47.6353-44.8172L75.2305-44.8172C77.1212-44.8172 78.6765-46.3811 78.6765-48.2632C78.6765-50.1539 77.1212-51.7178 75.2305-51.7178L47.6353-51.7178C45.7446-51.7178 44.1893-50.1539 44.1893-48.2632C44.1893-46.3811 45.7446-44.8172 47.6353-44.8172ZM47.6353-27.5561L75.2305-27.5561C77.1749-27.5561 78.6765-29.0577 78.6765-31.0021C78.6765-32.8928 77.1647-34.3944 75.2305-34.3944L47.6353-34.3944C45.7012-34.3944 44.1893-32.8928 44.1893-31.0021C44.1893-29.0577 45.6909-27.5561 47.6353-27.5561ZM47.6353-9.32599L75.2305-9.32599C77.1212-9.32599 78.6765-10.8899 78.6765-12.7806C78.6765-14.6627 77.1647-16.1729 75.2305-16.1729L47.6353-16.1729C45.7012-16.1729 44.1893-14.6627 44.1893-12.7806C44.1893-10.8899 45.7446-9.32599 47.6353-9.32599ZM28.3168 21.5068L80.1206 21.5068C90.4837 21.5068 96.0199 15.9603 96.0199 5.44471L96.0199-68.4346C96.0199-78.7331 90.6488-84.5053 80.5983-84.5053L79.4885-84.5053C79.6759-83.898 79.7478-83.1873 79.7478-82.4978L79.7478-77.9741C79.7478-76.9458 79.6324-75.9746 79.3669-75.1068L80.3686-75.1068C84.4908-75.1068 86.6299-72.4654 86.6299-68.31L86.6299 5.3201C86.6299 9.68402 84.2302 12.1603 79.7172 12.1603L28.7637 12.1603C24.2072 12.1603 21.8161 9.68402 21.8161 5.3201L21.8161-68.31C21.8161-72.4654 23.9466-75.1068 28.1123-75.1068L29.1226-75.1068C28.8484-75.9746 28.733-76.9458 28.733-77.9741L28.733-82.4978C28.733-83.1873 28.805-83.898 28.9923-84.5053L27.8826-84.5053C17.7886-84.5053 12.4609-78.7331 12.4609-68.4346L12.4609 5.44471C12.4609 15.9603 17.9623 21.5068 28.3168 21.5068ZM39.1857-72.3699L69.2517-72.3699C72.2114-72.3699 74.0082-74.222 74.0082-77.3708L74.0082-82.5064C74.0082-85.6638 72.2114-87.5074 69.2517-87.5074L65.1336-87.5074C64.7909-93.189 60.0746-97.7528 54.2404-97.7528C48.4148-97.7528 43.69-93.189 43.3038-87.5074L39.1857-87.5074C36.2346-87.5074 34.4726-85.6638 34.4726-82.5064L34.4726-77.3708C34.4726-74.222 36.2346-72.3699 39.1857-72.3699ZM54.2404-82.7884C51.8596-82.7884 49.899-84.7679 49.899-87.1298C49.899-89.5089 51.8596-91.4261 54.2404-91.4261C56.6212-91.4261 58.5384-89.5089 58.5384-87.1298C58.5384-84.7679 56.6212-82.7884 54.2404-82.7884Z"/>
  </g>
  <g id="Regular-M" transform="matrix(1 0 0 1 1396.32 1126)">
   <path d="M32.9215-44.0642C35.2238-44.0642 37.0593-45.9102 37.0593-48.2019C37.0593-50.5042 35.2238-52.3502 32.9215-52.3502C30.6816-52.3502 28.7838-50.4524 28.7838-48.2019C28.7838-45.962 30.6816-44.0642 32.9215-44.0642ZM32.9215-26.7616C35.2238-26.7616 37.0593-28.597 37.0593-30.8993C37.0593-33.2016 35.2238-34.9853 32.9215-34.9853C30.6298-34.9853 28.7838-33.1498 28.7838-30.8993C28.7838-28.597 30.6298-26.7616 32.9215-26.7616ZM32.9215-8.48218C35.2238-8.48218 37.0593-10.3282 37.0593-12.6305C37.0593-14.9222 35.2238-16.7682 32.9215-16.7682C30.6816-16.7682 28.7838-14.8705 28.7838-12.6305C28.7838-10.38 30.6816-8.48218 32.9215-8.48218ZM45.9437-45.155L75.2264-45.155C76.8951-45.155 78.2733-46.5438 78.2733-48.2019C78.2733-49.8706 76.8951-51.2594 75.2264-51.2594L45.9437-51.2594C44.2751-51.2594 42.8968-49.8706 42.8968-48.2019C42.8968-46.5438 44.2751-45.155 45.9437-45.155ZM45.9437-27.8524L75.2264-27.8524C76.9468-27.8524 78.2733-29.1789 78.2733-30.8993C78.2733-32.568 76.9468-33.8945 75.2264-33.8945L45.9437-33.8945C44.2233-33.8945 42.8968-32.568 42.8968-30.8993C42.8968-29.1789 44.2233-27.8524 45.9437-27.8524ZM45.9437-9.57302L75.2264-9.57302C76.8951-9.57302 78.2733-10.9618 78.2733-12.6305C78.2733-14.2886 76.9468-15.6257 75.2264-15.6257L45.9437-15.6257C44.2233-15.6257 42.8968-14.2886 42.8968-12.6305C42.8968-10.9618 44.2751-9.57302 45.9437-9.57302ZM27.5719 21.0578L79.4229 21.0578C89.5103 21.0578 94.5856 15.9825 94.5856 5.7504L94.5856-68.2796C94.5856-78.2529 89.7067-83.5975 79.9922-83.5975L78.8165-83.5975C78.8683-83.2036 78.8683-82.7474 78.8683-82.3534L78.8683-77.9609C78.8683-77.1635 78.8165-76.3968 78.6718-75.6923L79.8158-75.6923C84.3816-75.6923 86.6909-72.7725 86.6909-68.155L86.6909 5.62579C86.6909 10.4916 84.0711 13.2149 79.0395 13.2149L28.007 13.2149C22.9237 13.2149 20.3144 10.4916 20.3144 5.62579L20.3144-68.155C20.3144-72.7725 22.6131-75.6923 27.2307-75.6923L28.3853-75.6923C28.23-76.3968 28.1783-77.1635 28.1783-77.9609L28.1783-82.3534C28.1783-82.7474 28.1783-83.2036 28.23-83.5975L27.0543-83.5975C17.288-83.5975 12.4609-78.2529 12.4609-68.2796L12.4609 5.7504C12.4609 15.9825 17.4951 21.0578 27.5719 21.0578ZM38.4264-72.4033L68.5683-72.4033C71.4314-72.4033 73.1739-74.187 73.1739-77.2254L73.1739-82.364C73.1739-85.4129 71.4314-87.1861 68.5683-87.1861L64.1071-87.1861C63.7965-92.7177 59.1995-97.1699 53.5233-97.1699C47.8575-97.1699 43.25-92.7177 42.8877-87.1861L38.4264-87.1861C35.574-87.1861 33.8726-85.4129 33.8726-82.364L33.8726-77.2254C33.8726-74.187 35.574-72.4033 38.4264-72.4033ZM53.5233-82.5449C51.1758-82.5449 49.2338-84.4974 49.2338-86.8344C49.2338-89.1924 51.1758-91.0826 53.5233-91.0826C55.8707-91.0826 57.761-89.1924 57.761-86.8344C57.761-84.4974 55.8707-82.5449 53.5233-82.5449Z"/>
  </g>
  <g id="Light-M" transform="matrix(1 0 0 1 1100.31 1126)">
   <path d="M32.2542-44.9026C34.2485-44.9026 35.8273-46.5091 35.8273-48.4757C35.8273-50.47 34.2485-52.0765 32.2542-52.0765C30.3222-52.0765 28.6811-50.4353 28.6811-48.4757C28.6811-46.5437 30.3222-44.9026 32.2542-44.9026ZM32.2542-27.3262C34.2485-27.3262 35.8273-28.905 35.8273-30.8993C35.8273-32.8936 34.2485-34.4378 32.2542-34.4378C30.2876-34.4378 28.6811-32.8589 28.6811-30.8993C28.6811-28.905 30.2876-27.3262 32.2542-27.3262ZM32.2542-8.70463C34.2485-8.70463 35.8273-10.3111 35.8273-12.3054C35.8273-14.272 34.2485-15.8785 32.2542-15.8785C30.3222-15.8785 28.6811-14.2373 28.6811-12.3054C28.6811-10.3458 30.3222-8.70463 32.2542-8.70463ZM44.2669-46.0448L74.5591-46.0448C75.9026-46.0448 76.99-47.1598 76.99-48.4757C76.99-49.8193 75.9026-50.9343 74.5591-50.9343L44.2669-50.9343C42.9233-50.9343 41.8359-49.8193 41.8359-48.4757C41.8359-47.1598 42.9233-46.0448 44.2669-46.0448ZM44.2669-28.4684L74.5591-28.4684C75.9373-28.4684 76.99-29.5211 76.99-30.8993C76.99-32.2429 75.9373-33.2956 74.5591-33.2956L44.2669-33.2956C42.8887-33.2956 41.8359-32.2429 41.8359-30.8993C41.8359-29.5211 42.8887-28.4684 44.2669-28.4684ZM44.2669-9.84679L74.5591-9.84679C75.9026-9.84679 76.99-10.9618 76.99-12.3054C76.99-13.6213 75.9373-14.7017 74.5591-14.7017L44.2669-14.7017C42.8887-14.7017 41.8359-13.6213 41.8359-12.3054C41.8359-10.9618 42.9233-9.84679 44.2669-9.84679ZM26.7163 20.5445L78.8925 20.5445C88.3638 20.5445 93.1825 15.7258 93.1825 6.17817L93.1825-69.0838C93.1825-78.4582 88.4747-83.4778 79.2735-83.4778L76.7974-83.4778C76.8321-83.1523 76.8321-82.7645 76.8321-82.439L76.8321-79.1074C76.8321-78.5324 76.7974-77.9367 76.7211-77.4034L79.1143-77.4034C84.4159-77.4034 87.1358-74.2954 87.1358-68.9592L87.1358 6.05356C87.1358 11.5353 84.208 14.5324 78.5947 14.5324L27.0488 14.5324C21.4008 14.5324 18.5006 11.5353 18.5006 6.05356L18.5006-68.9592C18.5006-74.2954 21.1929-77.4034 26.5291-77.4034L28.95-77.4034C28.846-77.9367 28.8114-78.5324 28.8114-79.1074L28.8114-82.439C28.8114-82.7645 28.8114-83.1523 28.846-83.4778L26.3699-83.4778C17.1341-83.4778 12.4609-78.4582 12.4609-69.0838L12.4609 6.17817C12.4609 15.7258 17.2726 20.5445 26.7163 20.5445ZM37.896-73.3272L67.7128-73.3272C70.2678-73.3272 71.805-74.8714 71.805-77.482L71.805-82.4667C71.805-85.1049 70.2678-86.6214 67.7128-86.6214L62.5842-86.6214C62.3763-91.8279 58.1044-96.0235 52.8217-96.0235C47.5667-96.0235 43.2671-91.8279 43.0246-86.6214L37.896-86.6214C35.3686-86.6214 33.8384-85.1049 33.8384-82.4667L33.8384-77.482C33.8384-74.8714 35.3686-73.3272 37.896-73.3272ZM52.8217-82.0316C50.4058-82.0316 48.4467-84.0183 48.4467-86.4066C48.4467-88.8502 50.4058-90.7746 52.8217-90.7746C55.2376-90.7746 57.1621-88.8502 57.1621-86.4066C57.1621-84.0183 55.2376-82.0316 52.8217-82.0316Z"/>
  </g>
  <g id="Thin-M" transform="matrix(1 0 0 1 804.528 1126)">
   <path d="M31.3716-46.0115C32.9585-46.0115 34.1979-47.3012 34.1979-48.8378C34.1979-50.4247 32.9585-51.7144 31.3716-51.7144C29.847-51.7144 28.5453-50.4127 28.5453-48.8378C28.5453-47.3132 29.847-46.0115 31.3716-46.0115ZM31.3716-28.073C32.9585-28.073 34.1979-29.3124 34.1979-30.8993C34.1979-32.4862 32.9585-33.7136 31.3716-33.7136C29.835-33.7136 28.5453-32.4742 28.5453-30.8993C28.5453-29.3124 29.835-28.073 31.3716-28.073ZM31.3716-8.99882C32.9585-8.99882 34.1979-10.2885 34.1979-11.8754C34.1979-13.412 32.9585-14.7017 31.3716-14.7017C29.847-14.7017 28.5453-13.4 28.5453-11.8754C28.5453-10.3005 29.847-8.99882 31.3716-8.99882ZM42.0491-47.2216L73.6765-47.2216C74.5901-47.2216 75.2927-47.9745 75.2927-48.8378C75.2927-49.7514 74.5901-50.5043 73.6765-50.5043L42.0491-50.5043C41.1355-50.5043 40.4328-49.7514 40.4328-48.8378C40.4328-47.9745 41.1355-47.2216 42.0491-47.2216ZM42.0491-29.2831L73.6765-29.2831C74.6021-29.2831 75.2927-29.9737 75.2927-30.8993C75.2927-31.8129 74.6021-32.5035 73.6765-32.5035L42.0491-32.5035C41.1235-32.5035 40.4328-31.8129 40.4328-30.8993C40.4328-29.9737 41.1235-29.2831 42.0491-29.2831ZM42.0491-10.2089L73.6765-10.2089C74.5901-10.2089 75.2927-10.9618 75.2927-11.8754C75.2927-12.7387 74.6021-13.4796 73.6765-13.4796L42.0491-13.4796C41.1235-13.4796 40.4328-12.7387 40.4328-11.8754C40.4328-10.9618 41.1355-10.2089 42.0491-10.2089ZM25.5848 19.8655L78.1909 19.8655C86.8476 19.8655 91.3268 15.3863 91.3268 6.74394L91.3268-70.1474C91.3268-78.7298 86.8453-83.3193 78.3231-83.3193L74.127-83.3193C74.139-83.0844 74.139-82.7871 74.139-82.5521L74.139-80.6236C74.139-80.3428 74.127-79.9735 74.1413-79.6665L78.1864-79.6665C84.4611-79.6665 87.7242-76.3095 87.7242-70.0228L87.7242 6.61933C87.7242 12.9158 84.3891 16.275 78.0063 16.275L25.7815 16.275C19.3867 16.275 16.1018 12.9158 16.1018 6.61933L16.1018-70.0228C16.1018-76.3095 19.3146-79.6665 25.6013-79.6665L29.6968-79.6665C29.6607-79.9735 29.6487-80.3428 29.6487-80.6236L29.6487-82.5521C29.6487-82.7871 29.6487-83.0844 29.6607-83.3193L25.4647-83.3193C16.9304-83.3193 12.4609-78.7298 12.4609-70.1474L12.4609 6.74394C12.4609 15.3863 16.9784 19.8655 25.5848 19.8655ZM37.1944-74.5493L66.5813-74.5493C68.7289-74.5493 69.9946-75.7766 69.9946-77.8215L69.9946-82.6024C69.9946-84.6976 68.7289-85.8746 66.5813-85.8746L60.5701-85.8746C60.498-90.6511 56.6561-94.5073 51.8939-94.5073C47.1819-94.5073 43.2897-90.6511 43.2057-85.8746L37.1944-85.8746C35.0971-85.8746 33.7932-84.6976 33.7932-82.6024L33.7932-77.8215C33.7932-75.7766 35.0971-74.5493 37.1944-74.5493ZM51.8939-81.3526C49.3874-81.3526 47.4057-83.3847 47.4057-85.8408C47.4057-88.3976 49.3874-90.3673 51.8939-90.3673C54.4003-90.3673 56.37-88.3976 56.37-85.8408C56.37-83.3847 54.4003-81.3526 51.8939-81.3526Z"/>
  </g>
  <g id="Ultralight-M" transform="matrix(1 0 0 1 508.292 1126)">
   <path d="M30.9195-46.5795C32.2978-46.5795 33.3633-47.7069 33.3633-49.0232C33.3633-50.4015 32.2978-51.5289 30.9195-51.5289C29.6036-51.5289 28.4758-50.4011 28.4758-49.0232C28.4758-47.7073 29.6036-46.5795 30.9195-46.5795ZM30.9195-28.4555C32.2978-28.4555 33.3633-29.521 33.3633-30.8993C33.3633-32.2776 32.2978-33.3427 30.9195-33.3427C29.6031-33.3427 28.4758-32.2772 28.4758-30.8993C28.4758-29.521 29.6031-28.4555 30.9195-28.4555ZM30.9195-9.14951C32.2978-9.14951 33.3633-10.2769 33.3633-11.6552C33.3633-12.9716 32.2978-14.0989 30.9195-14.0989C29.6036-14.0989 28.4758-12.9711 28.4758-11.6552C28.4758-10.2773 29.6036-9.14951 30.9195-9.14951ZM40.9131-47.8243L73.2244-47.8243C73.9178-47.8243 74.4234-48.3918 74.4234-49.0232C74.4234-49.7166 73.9178-50.2841 73.2244-50.2841L40.9131-50.2841C40.2198-50.2841 39.7142-49.7166 39.7142-49.0232C39.7142-48.3918 40.2198-47.8243 40.9131-47.8243ZM40.9131-29.7004L73.2244-29.7004C73.9182-29.7004 74.4234-30.2055 74.4234-30.8993C74.4234-31.5927 73.9182-32.0978 73.2244-32.0978L40.9131-32.0978C40.2193-32.0978 39.7142-31.5927 39.7142-30.8993C39.7142-30.2055 40.2193-29.7004 40.9131-29.7004ZM40.9131-10.3943L73.2244-10.3943C73.9178-10.3943 74.4234-10.9618 74.4234-11.6552C74.4234-12.2866 73.9182-12.8537 73.2244-12.8537L40.9131-12.8537C40.2193-12.8537 39.7142-12.2866 39.7142-11.6552C39.7142-10.9618 40.2198-10.3943 40.9131-10.3943ZM25.0052 19.5178L77.8316 19.5178C86.071 19.5178 90.3763 15.2125 90.3763 7.03372L90.3763-70.6922C90.3763-78.8689 86.0108-83.2382 77.8362-83.2382L72.7592-83.2382C72.7596-83.0496 72.7596-82.7987 72.7596-82.6101L72.7596-81.4002C72.7596-81.2701 72.7592-81.0167 72.8199-80.8256L77.7112-80.8256C84.4843-80.8256 88.0256-77.3412 88.0256-70.5676L88.0256 6.90911C88.0256 13.6229 84.4818 17.1675 77.7049 17.1675L25.1324 17.1675C18.355 17.1675 14.8731 13.6229 14.8731 6.90911L14.8731-70.5676C14.8731-77.3412 18.3525-80.8256 25.126-80.8256L30.0793-80.8256C30.078-81.0167 30.0776-81.2701 30.0776-81.4002L30.0776-82.6101C30.0776-82.7987 30.0776-83.0496 30.078-83.2382L25.001-83.2382C16.8261-83.2382 12.4609-78.8689 12.4609-70.6922L12.4609 7.03372C12.4609 15.2125 16.8277 19.5178 25.0052 19.5178ZM36.8351-75.1752L66.0017-75.1752C67.9407-75.1752 69.0673-76.2403 69.0673-77.9953L69.0673-82.672C69.0673-84.4889 67.9407-85.4921 66.0017-85.4921L59.5384-85.4921C59.5359-90.0483 55.9142-93.7306 51.4186-93.7306C46.9849-93.7306 43.3013-90.0483 43.2984-85.4921L36.8351-85.4921C34.958-85.4921 33.77-84.4889 33.77-82.672L33.77-77.9953C33.77-76.2403 34.958-75.1752 36.8351-75.1752ZM51.4186-81.0049C48.8658-81.0049 46.8725-83.0601 46.8725-85.551C46.8725-88.1657 48.8658-90.1586 51.4186-90.1586C53.9714-90.1586 55.9643-88.1657 55.9643-85.551C55.9643-83.0601 53.9714-81.0049 51.4186-81.0049Z"/>
  </g>
  <g id="Black-S" transform="matrix(1 0 0 1 2888.09 696)">
   <path d="M32.1289-41.1133C34.7168-41.1133 36.7188-43.1152 36.7188-45.7031C36.7188-48.291 34.7168-50.293 32.1289-50.293C29.5898-50.293 27.5391-48.2422 27.5391-45.7031C27.5391-43.1641 29.5898-41.1133 32.1289-41.1133ZM32.1289-27.7344C34.7168-27.7344 36.7188-29.7363 36.7188-32.3242C36.7188-34.8633 34.668-36.8652 32.1289-36.8652C29.5898-36.8652 27.5391-34.8145 27.5391-32.3242C27.5391-29.7363 29.541-27.7344 32.1289-27.7344ZM32.1289-13.623C34.7168-13.623 36.7188-15.625 36.7188-18.2129C36.7188-20.8008 34.7168-22.8027 32.1289-22.8027C29.5898-22.8027 27.5391-20.752 27.5391-18.2129C27.5391-15.6738 29.5898-13.623 32.1289-13.623ZM43.9453-41.4551L58.9355-41.4551C61.2793-41.4551 63.1836-43.3594 63.1836-45.7031C63.1836-48.0469 61.2793-49.9512 58.9355-49.9512L43.9453-49.9512C41.6016-49.9512 39.6973-48.0469 39.6973-45.7031C39.6973-43.3594 41.6016-41.4551 43.9453-41.4551ZM43.9453-28.0762L58.9355-28.0762C61.3281-28.0762 63.1836-29.9316 63.1836-32.3242C63.1836-34.668 61.2793-36.5234 58.9355-36.5234L43.9453-36.5234C41.6016-36.5234 39.6973-34.668 39.6973-32.3242C39.6973-29.9316 41.5527-28.0762 43.9453-28.0762ZM43.9453-13.9648L58.9355-13.9648C61.2793-13.9648 63.1836-15.8691 63.1836-18.2129C63.1836-20.5566 61.2793-22.4121 58.9355-22.4121L43.9453-22.4121C41.6016-22.4121 39.6973-20.5566 39.6973-18.2129C39.6973-15.8691 41.6016-13.9648 43.9453-13.9648ZM25.0977 10.9863L65.5273 10.9863C74.707 10.9863 80.8594 4.78516 80.8594-4.54102L80.8594-61.9141C80.8594-71.2402 74.707-77.4414 65.5273-77.4414L64.8438-77.4414C65.5273-76.123 65.8691-74.5605 65.8691-72.8516L65.8691-68.8477C65.8691-67.1387 65.5273-65.5762 64.8438-64.2578L65.1367-64.2578C66.6504-64.2578 67.6758-63.2812 67.6758-61.8164L67.6758-4.63867C67.6758-3.17383 66.6504-2.19727 65.1367-2.19727L25.4883-2.19727C23.9746-2.19727 22.9492-3.17383 22.9492-4.63867L22.9492-61.8164C22.9492-63.2812 23.9746-64.2578 25.4883-64.2578L25.7812-64.2578C25.0977-65.5762 24.7559-67.1387 24.7559-68.8477L24.7559-72.8516C24.7559-74.5605 25.0977-76.123 25.7812-77.4414L25.0977-77.4414C15.918-77.4414 9.76562-71.2402 9.76562-61.9141L9.76562-4.54102C9.76562 4.78516 15.918 10.9863 25.0977 10.9863ZM33.6914-64.2578L56.9336-64.2578C59.6191-64.2578 61.2305-65.9668 61.2305-68.8477L61.2305-72.8516C61.2305-75.7324 59.6191-77.4414 56.9336-77.4414L55.0293-77.4414C54.6387-82.4707 50.4883-86.4746 45.3125-86.4746C40.1367-86.4746 35.9863-82.4707 35.5957-77.4414L33.6914-77.4414C31.0059-77.4414 29.3945-75.7324 29.3945-72.8516L29.3945-68.8477C29.3945-65.9668 31.0059-64.2578 33.6914-64.2578ZM45.3125-73.4375C43.3105-73.4375 41.6992-75.0977 41.6992-77.0508C41.6992-79.0039 43.3105-80.6152 45.3125-80.6152C47.3145-80.6152 48.9258-79.0039 48.9258-77.0508C48.9258-75.0977 47.3145-73.4375 45.3125-73.4375Z"/>
  </g>
  <g id="Heavy-S" transform="matrix(1 0 0 1 2592.09 696)">
   <path d="M30.7114-41.2631C33.1495-41.2631 35.0477-43.1613 35.0477-45.5994C35.0477-48.0375 33.1495-49.9357 30.7114-49.9357C28.3222-49.9357 26.3751-47.9886 26.3751-45.5994C26.3751-43.2102 28.3222-41.2631 30.7114-41.2631ZM30.7114-27.8727C33.1495-27.8727 35.0477-29.7709 35.0477-32.209C35.0477-34.6097 33.1122-36.4965 30.7114-36.4965C28.3106-36.4965 26.3751-34.5609 26.3751-32.209C26.3751-29.7709 28.2733-27.8727 30.7114-27.8727ZM30.7114-13.7498C33.1495-13.7498 35.0477-15.648 35.0477-18.0861C35.0477-20.5242 33.1495-22.4224 30.7114-22.4224C28.3222-22.4224 26.3751-20.4754 26.3751-18.0861C26.3751-15.6969 28.3222-13.7498 30.7114-13.7498ZM42.2627-41.7201L59.0162-41.7201C61.1525-41.7201 62.8955-43.4631 62.8955-45.5994C62.8955-47.7357 61.1525-49.4787 59.0162-49.4787L42.2627-49.4787C40.1264-49.4787 38.3835-47.7357 38.3835-45.5994C38.3835-43.4631 40.1264-41.7201 42.2627-41.7201ZM42.2627-28.3297L59.0162-28.3297C61.2014-28.3297 62.8955-30.0238 62.8955-32.209C62.8955-34.3453 61.1641-36.0394 59.0162-36.0394L42.2627-36.0394C40.1149-36.0394 38.3835-34.3453 38.3835-32.209C38.3835-30.0238 40.0776-28.3297 42.2627-28.3297ZM42.2627-14.2069L59.0162-14.2069C61.1525-14.2069 62.8955-15.9498 62.8955-18.0861C62.8955-20.2224 61.1641-21.9166 59.0162-21.9166L42.2627-21.9166C40.1149-21.9166 38.3835-20.2224 38.3835-18.0861C38.3835-15.9498 40.1264-14.2069 42.2627-14.2069ZM24.3716 10.5484L64.8128 10.5484C73.762 10.5484 79.4303 4.84278 79.4303-4.2529L79.4303-61.6375C79.4303-70.6755 73.8081-76.4388 64.9396-76.4388L64.3482-76.4388C64.882-75.3509 65.1431-74.065 65.1431-72.6787L65.1431-68.6863C65.1431-67.2078 64.8704-65.8528 64.3136-64.6957L64.6066-64.6957C66.5236-64.6957 67.6873-63.4311 67.6873-61.5398L67.6873-4.35056C67.6873-2.40169 66.4545-1.18311 64.4337-1.18311L24.7622-1.18311C22.73-1.18311 21.4971-2.40169 21.4971-4.35056L21.4971-61.5398C21.4971-63.4311 22.6608-64.6957 24.5894-64.6957L24.8823-64.6957C24.3255-65.8528 24.0529-67.2078 24.0529-68.6863L24.0529-72.6787C24.0529-74.065 24.314-75.3509 24.8478-76.4388L24.2564-76.4388C15.3763-76.4388 9.76562-70.6755 9.76562-61.6375L9.76562-4.2529C9.76562 4.84278 15.4224 10.5484 24.3716 10.5484ZM32.9077-64.1771L56.2767-64.1771C58.8931-64.1771 60.4699-65.84 60.4699-68.6517L60.4699-72.6787C60.4699-75.4904 58.8931-77.1533 56.2767-77.1533L54.0728-77.1533C53.7052-82.0558 49.647-85.9675 44.598-85.9675C39.549-85.9675 35.4908-82.0558 35.1117-77.1533L32.9077-77.1533C30.2913-77.1533 28.7261-75.4904 28.7261-72.6787L28.7261-68.6517C28.7261-65.84 30.2913-64.1771 32.9077-64.1771ZM44.598-73.2301C42.6421-73.2301 41.0538-74.8556 41.0538-76.7742C41.0538-78.6927 42.6421-80.2695 44.598-80.2695C46.5538-80.2695 48.1306-78.6927 48.1306-76.7742C48.1306-74.8556 46.5538-73.2301 44.598-73.2301Z"/>
  </g>
  <g id="Bold-S" transform="matrix(1 0 0 1 2296.18 696)">
   <path d="M29.126-41.4307C31.3965-41.4307 33.1787-43.2129 33.1787-45.4834C33.1787-47.7539 31.3965-49.5361 29.126-49.5361C26.9043-49.5361 25.0732-47.7051 25.0732-45.4834C25.0732-43.2617 26.9043-41.4307 29.126-41.4307ZM29.126-28.0273C31.3965-28.0273 33.1787-29.8096 33.1787-32.0801C33.1787-34.3262 31.3721-36.084 29.126-36.084C26.8799-36.084 25.0732-34.2773 25.0732-32.0801C25.0732-29.8096 26.8555-28.0273 29.126-28.0273ZM29.126-13.8916C31.3965-13.8916 33.1787-15.6738 33.1787-17.9443C33.1787-20.2148 31.3965-21.9971 29.126-21.9971C26.9043-21.9971 25.0732-20.166 25.0732-17.9443C25.0732-15.7227 26.9043-13.8916 29.126-13.8916ZM40.3809-42.0166L59.1064-42.0166C61.0107-42.0166 62.5732-43.5791 62.5732-45.4834C62.5732-47.3877 61.0107-48.9502 59.1064-48.9502L40.3809-48.9502C38.4766-48.9502 36.9141-47.3877 36.9141-45.4834C36.9141-43.5791 38.4766-42.0166 40.3809-42.0166ZM40.3809-28.6133L59.1064-28.6133C61.0596-28.6133 62.5732-30.127 62.5732-32.0801C62.5732-33.9844 61.0352-35.498 59.1064-35.498L40.3809-35.498C38.4521-35.498 36.9141-33.9844 36.9141-32.0801C36.9141-30.127 38.4277-28.6133 40.3809-28.6133ZM40.3809-14.4775L59.1064-14.4775C61.0107-14.4775 62.5732-16.04 62.5732-17.9443C62.5732-19.8486 61.0352-21.3623 59.1064-21.3623L40.3809-21.3623C38.4521-21.3623 36.9141-19.8486 36.9141-17.9443C36.9141-16.04 38.4766-14.4775 40.3809-14.4775ZM23.5596 10.0586L64.0137 10.0586C72.7051 10.0586 77.832 4.90723 77.832-3.93066L77.832-61.3281C77.832-70.0439 72.8027-75.3174 64.2822-75.3174L63.7939-75.3174C64.1602-74.4873 64.3311-73.5107 64.3311-72.4854L64.3311-68.5059C64.3311-67.2852 64.1357-66.1621 63.7207-65.1855L64.0137-65.1855C66.3818-65.1855 67.7002-63.5986 67.7002-61.2305L67.7002-4.02832C67.7002-1.53809 66.2354-0.0488281 63.6475-0.0488281L23.9502-0.0488281C21.3379-0.0488281 19.873-1.53809 19.873-4.02832L19.873-61.2305C19.873-63.5986 21.1914-65.1855 23.584-65.1855L23.877-65.1855C23.4619-66.1621 23.2666-67.2852 23.2666-68.5059L23.2666-72.4854C23.2666-73.5107 23.4375-74.4873 23.8037-75.3174L23.3154-75.3174C14.7705-75.3174 9.76562-70.0439 9.76562-61.3281L9.76562-3.93066C9.76562 4.90723 14.8682 10.0586 23.5596 10.0586ZM32.0312-64.0869L55.542-64.0869C58.0811-64.0869 59.6191-65.6982 59.6191-68.4326L59.6191-72.4854C59.6191-75.2197 58.0811-76.8311 55.542-76.8311L53.0029-76.8311C52.6611-81.5918 48.7061-85.4004 43.7988-85.4004C38.8916-85.4004 34.9365-81.5918 34.5703-76.8311L32.0312-76.8311C29.4922-76.8311 27.9785-75.2197 27.9785-72.4854L27.9785-68.4326C27.9785-65.6982 29.4922-64.0869 32.0312-64.0869ZM43.7988-72.998C41.8945-72.998 40.332-74.585 40.332-76.4648C40.332-78.3447 41.8945-79.8828 43.7988-79.8828C45.7031-79.8828 47.2412-78.3447 47.2412-76.4648C47.2412-74.585 45.7031-72.998 43.7988-72.998Z"/>
  </g>
  <g id="Semibold-S" transform="matrix(1 0 0 1 2000.02 696)">
   <path d="M28.0329-41.5462C30.1879-41.5462 31.8901-43.2484 31.8901-45.4034C31.8901-47.5584 30.1879-49.2606 28.0329-49.2606C25.9268-49.2606 24.1757-47.5096 24.1757-45.4034C24.1757-43.2973 25.9268-41.5462 28.0329-41.5462ZM28.0329-28.134C30.1879-28.134 31.8901-29.8362 31.8901-31.9912C31.8901-34.1307 30.1724-35.7996 28.0329-35.7996C25.8935-35.7996 24.1757-34.0818 24.1757-31.9912C24.1757-29.8362 25.8779-28.134 28.0329-28.134ZM28.0329-13.9894C30.1879-13.9894 31.8901-15.6916 31.8901-17.8466C31.8901-20.0016 30.1879-21.7038 28.0329-21.7038C25.9268-21.7038 24.1757-19.9527 24.1757-17.8466C24.1757-15.7404 25.9268-13.9894 28.0329-13.9894ZM39.0834-42.221L59.1687-42.221C60.913-42.221 62.3511-43.6591 62.3511-45.4034C62.3511-47.1478 60.913-48.5858 59.1687-48.5858L39.0834-48.5858C37.3391-48.5858 35.901-47.1478 35.901-45.4034C35.901-43.6591 37.3391-42.221 39.0834-42.221ZM39.0834-28.8088L59.1687-28.8088C60.9618-28.8088 62.3511-30.198 62.3511-31.9912C62.3511-33.7355 60.9463-35.1248 59.1687-35.1248L39.0834-35.1248C37.3058-35.1248 35.901-33.7355 35.901-31.9912C35.901-30.198 37.2902-28.8088 39.0834-28.8088ZM39.0834-14.6642L59.1687-14.6642C60.913-14.6642 62.3511-16.1022 62.3511-17.8466C62.3511-19.5909 60.9463-20.9802 59.1687-20.9802L39.0834-20.9802C37.3058-20.9802 35.901-19.5909 35.901-17.8466C35.901-16.1022 37.3391-14.6642 39.0834-14.6642ZM22.9997 9.7209L63.4627 9.7209C71.9764 9.7209 76.7301 4.95166 76.7301-3.7085L76.7301-61.1148C76.7301-69.6085 72.1096-74.5442 63.829-74.5442L63.4118-74.5442C63.6625-73.8919 63.7712-73.1286 63.7712-72.3521L63.7712-68.3814C63.7712-67.3385 63.6292-66.3754 63.3119-65.5232L63.6049-65.5232C66.2841-65.5232 67.7091-63.7142 67.7091-61.0172L67.7091-3.80615C67.7091-0.942676 66.0843 0.733203 63.1054 0.733203L23.3903 0.733203C20.3781 0.733203 18.7533-0.942676 18.7533-3.80615L18.7533-61.0172C18.7533-63.7142 20.1783-65.5232 22.8908-65.5232L23.1838-65.5232C22.8665-66.3754 22.7245-67.3385 22.7245-68.3814L22.7245-72.3521C22.7245-73.1286 22.8332-73.8919 23.0839-74.5442L22.6667-74.5442C14.3528-74.5442 9.76562-69.6085 9.76562-61.1148L9.76562-3.7085C9.76562 4.95166 14.486 9.7209 22.9997 9.7209ZM31.427-64.0247L55.0354-64.0247C57.5212-64.0247 59.0326-65.6005 59.0326-68.2815L59.0326-72.3521C59.0326-75.0331 57.5212-76.6089 55.0354-76.6089L52.2653-76.6089C51.9413-81.2719 48.0573-85.0094 43.2479-85.0094C38.4384-85.0094 34.5544-81.2719 34.1971-76.6089L31.427-76.6089C28.9412-76.6089 27.4631-75.0331 27.4631-72.3521L27.4631-68.2815C27.4631-65.6005 28.9412-64.0247 31.427-64.0247ZM43.2479-72.8381C41.3791-72.8381 39.8344-74.3983 39.8344-76.2516C39.8344-78.1048 41.3791-79.6162 43.2479-79.6162C45.1166-79.6162 46.628-78.1048 46.628-76.2516C46.628-74.3983 45.1166-72.8381 43.2479-72.8381Z"/>
  </g>
  <g id="Medium-S" transform="matrix(1 0 0 1 1703.73 696)">
   <path d="M27.2041-41.6338C29.2715-41.6338 30.9131-43.2754 30.9131-45.3428C30.9131-47.4102 29.2715-49.0518 27.2041-49.0518C25.1855-49.0518 23.4951-47.3613 23.4951-45.3428C23.4951-43.3242 25.1855-41.6338 27.2041-41.6338ZM27.2041-28.2148C29.2715-28.2148 30.9131-29.8564 30.9131-31.9238C30.9131-33.9824 29.2627-35.584 27.2041-35.584C25.1455-35.584 23.4951-33.9336 23.4951-31.9238C23.4951-29.8564 25.1367-28.2148 27.2041-28.2148ZM27.2041-14.0635C29.2715-14.0635 30.9131-15.7051 30.9131-17.7725C30.9131-19.8398 29.2715-21.4814 27.2041-21.4814C25.1855-21.4814 23.4951-19.791 23.4951-17.7725C23.4951-15.7539 25.1855-14.0635 27.2041-14.0635ZM38.0996-42.376L59.2158-42.376C60.8389-42.376 62.1826-43.7197 62.1826-45.3428C62.1826-46.9658 60.8389-48.3096 59.2158-48.3096L38.0996-48.3096C36.4766-48.3096 35.1328-46.9658 35.1328-45.3428C35.1328-43.7197 36.4766-42.376 38.0996-42.376ZM38.0996-28.957L59.2158-28.957C60.8877-28.957 62.1826-30.252 62.1826-31.9238C62.1826-33.5469 60.8789-34.8418 59.2158-34.8418L38.0996-34.8418C36.4365-34.8418 35.1328-33.5469 35.1328-31.9238C35.1328-30.252 36.4277-28.957 38.0996-28.957ZM38.0996-14.8057L59.2158-14.8057C60.8389-14.8057 62.1826-16.1494 62.1826-17.7725C62.1826-19.3955 60.8789-20.6904 59.2158-20.6904L38.0996-20.6904C36.4365-20.6904 35.1328-19.3955 35.1328-17.7725C35.1328-16.1494 36.4766-14.8057 38.0996-14.8057ZM22.5752 9.46484L63.0449 9.46484C71.4238 9.46484 75.8945 4.98535 75.8945-3.54004L75.8945-60.9531C75.8945-69.2783 71.584-73.958 63.4854-73.958L63.1221-73.958C63.2852-73.4404 63.3467-72.8389 63.3467-72.251L63.3467-68.2871C63.3467-67.3789 63.2451-66.5371 63.002-65.7793L63.2949-65.7793C66.21-65.7793 67.7158-63.8018 67.7158-60.8555L67.7158-3.6377C67.7158-0.491211 65.9697 1.32617 62.6943 1.32617L22.9658 1.32617C19.6504 1.32617 17.9043-0.491211 17.9043-3.6377L17.9043-60.8555C17.9043-63.8018 19.4102-65.7793 22.3652-65.7793L22.6582-65.7793C22.415-66.5371 22.3135-67.3789 22.3135-68.2871L22.3135-72.251C22.3135-72.8389 22.375-73.4404 22.5381-73.958L22.1748-73.958C14.0361-73.958 9.76562-69.2783 9.76562-60.9531L9.76562-3.54004C9.76562 4.98535 14.1963 9.46484 22.5752 9.46484ZM30.9688-63.9775L54.6514-63.9775C57.0967-63.9775 58.5879-65.5264 58.5879-68.167L58.5879-72.251C58.5879-74.8916 57.0967-76.4404 54.6514-76.4404L51.7061-76.4404C51.3955-81.0293 47.5654-84.7129 42.8301-84.7129C38.0947-84.7129 34.2646-81.0293 33.9141-76.4404L30.9688-76.4404C28.5234-76.4404 27.0723-74.8916 27.0723-72.251L27.0723-68.167C27.0723-65.5264 28.5234-63.9775 30.9688-63.9775ZM42.8301-72.7168C40.9883-72.7168 39.457-74.2568 39.457-76.0898C39.457-77.9229 40.9883-79.4141 42.8301-79.4141C44.6719-79.4141 46.1631-77.9229 46.1631-76.0898C46.1631-74.2568 44.6719-72.7168 42.8301-72.7168Z"/>
  </g>
  <g id="Regular-S" transform="matrix(1 0 0 1 1407.56 696)">
   <path d="M26.123-41.748C28.0762-41.748 29.6387-43.3105 29.6387-45.2637C29.6387-47.2168 28.0762-48.7793 26.123-48.7793C24.2188-48.7793 22.6074-47.168 22.6074-45.2637C22.6074-43.3594 24.2188-41.748 26.123-41.748ZM26.123-28.3203C28.0762-28.3203 29.6387-29.8828 29.6387-31.8359C29.6387-33.7891 28.0762-35.3027 26.123-35.3027C24.1699-35.3027 22.6074-33.7402 22.6074-31.8359C22.6074-29.8828 24.1699-28.3203 26.123-28.3203ZM26.123-14.1602C28.0762-14.1602 29.6387-15.7227 29.6387-17.6758C29.6387-19.6289 28.0762-21.1914 26.123-21.1914C24.2188-21.1914 22.6074-19.5801 22.6074-17.6758C22.6074-15.7715 24.2188-14.1602 26.123-14.1602ZM36.8164-42.5781L59.2773-42.5781C60.7422-42.5781 61.9629-43.7988 61.9629-45.2637C61.9629-46.7285 60.7422-47.9492 59.2773-47.9492L36.8164-47.9492C35.3516-47.9492 34.1309-46.7285 34.1309-45.2637C34.1309-43.7988 35.3516-42.5781 36.8164-42.5781ZM36.8164-29.1504L59.2773-29.1504C60.791-29.1504 61.9629-30.3223 61.9629-31.8359C61.9629-33.3008 60.791-34.4727 59.2773-34.4727L36.8164-34.4727C35.3027-34.4727 34.1309-33.3008 34.1309-31.8359C34.1309-30.3223 35.3027-29.1504 36.8164-29.1504ZM36.8164-14.9902L59.2773-14.9902C60.7422-14.9902 61.9629-16.2109 61.9629-17.6758C61.9629-19.1406 60.791-20.3125 59.2773-20.3125L36.8164-20.3125C35.3027-20.3125 34.1309-19.1406 34.1309-17.6758C34.1309-16.2109 35.3516-14.9902 36.8164-14.9902ZM22.0215 9.13086L62.5 9.13086C70.7031 9.13086 74.8047 5.0293 74.8047-3.32031L74.8047-60.7422C74.8047-68.8477 70.8984-73.1934 63.0371-73.1934L62.7441-73.1934C62.793-72.8516 62.793-72.4609 62.793-72.1191L62.793-68.1641C62.793-67.4316 62.7441-66.748 62.5977-66.1133L62.8906-66.1133C66.1133-66.1133 67.7246-63.916 67.7246-60.6445L67.7246-3.41797C67.7246 0.0976562 65.8203 2.09961 62.1582 2.09961L22.4121 2.09961C18.7012 2.09961 16.7969 0.0976562 16.7969-3.41797L16.7969-60.6445C16.7969-63.916 18.4082-66.1133 21.6797-66.1133L21.9727-66.1133C21.8262-66.748 21.7773-67.4316 21.7773-68.1641L21.7773-72.1191C21.7773-72.4609 21.7773-72.8516 21.8262-73.1934L21.5332-73.1934C13.623-73.1934 9.76562-68.8477 9.76562-60.7422L9.76562-3.32031C9.76562 5.0293 13.8184 9.13086 22.0215 9.13086ZM30.3711-63.916L54.1504-63.916C56.543-63.916 58.0078-65.4297 58.0078-68.0176L58.0078-72.1191C58.0078-74.707 56.543-76.2207 54.1504-76.2207L50.9766-76.2207C50.6836-80.7129 46.9238-84.3262 42.2852-84.3262C37.6465-84.3262 33.8867-80.7129 33.5449-76.2207L30.3711-76.2207C27.9785-76.2207 26.5625-74.707 26.5625-72.1191L26.5625-68.0176C26.5625-65.4297 27.9785-63.916 30.3711-63.916ZM42.2852-72.5586C40.4785-72.5586 38.9648-74.0723 38.9648-75.8789C38.9648-77.6855 40.4785-79.1504 42.2852-79.1504C44.0918-79.1504 45.5566-77.6855 45.5566-75.8789C45.5566-74.0723 44.0918-72.5586 42.2852-72.5586Z"/>
  </g>
  <g id="Light-S" transform="matrix(1 0 0 1 1111.47 696)">
   <path d="M25.5327-42.4897C27.2134-42.4897 28.5488-43.8403 28.5488-45.5059C28.5488-47.1865 27.2134-48.5371 25.5327-48.5371C23.9009-48.5371 22.5166-47.1528 22.5166-45.5059C22.5166-43.874 23.9009-42.4897 25.5327-42.4897ZM25.5327-28.8198C27.2134-28.8198 28.5488-30.1553 28.5488-31.8359C28.5488-33.5166 27.2134-34.8184 25.5327-34.8184C23.8672-34.8184 22.5166-33.4829 22.5166-31.8359C22.5166-30.1553 23.8672-28.8198 25.5327-28.8198ZM25.5327-14.3569C27.2134-14.3569 28.5488-15.7075 28.5488-17.3882C28.5488-19.0537 27.2134-20.4043 25.5327-20.4043C23.9009-20.4043 22.5166-19.02 22.5166-17.3882C22.5166-15.7412 23.9009-14.3569 25.5327-14.3569ZM35.333-43.3652L58.687-43.3652C59.8643-43.3652 60.8276-44.3437 60.8276-45.5059C60.8276-46.6831 59.8643-47.6616 58.687-47.6616L35.333-47.6616C34.1558-47.6616 33.1924-46.6831 33.1924-45.5059C33.1924-44.3437 34.1558-43.3652 35.333-43.3652ZM35.333-29.6953L58.687-29.6953C59.898-29.6953 60.8276-30.625 60.8276-31.8359C60.8276-33.0132 59.898-33.9429 58.687-33.9429L35.333-33.9429C34.1221-33.9429 33.1924-33.0132 33.1924-31.8359C33.1924-30.625 34.1221-29.6953 35.333-29.6953ZM35.333-15.2324L58.687-15.2324C59.8643-15.2324 60.8276-16.2109 60.8276-17.3882C60.8276-18.5503 59.898-19.4951 58.687-19.4951L35.333-19.4951C34.1221-19.4951 33.1924-18.5503 33.1924-17.3882C33.1924-16.2109 34.1558-15.2324 35.333-15.2324ZM21.2647 8.67676L62.0308 8.67676C69.689 8.67676 73.5635 4.80225 73.5635-2.9419L73.5635-61.4536C73.5635-69.0293 69.8086-73.0874 62.4014-73.0874L60.958-73.0874C60.9917-72.8062 60.9917-72.4761 60.9917-72.1948L60.9917-69.1782C60.9917-68.6426 60.958-68.1103 60.8721-67.6269L62.27-67.6269C66.1436-67.6269 68.1182-65.2632 68.1182-61.356L68.1182-3.03955C68.1182 1.02099 65.9414 3.26513 61.7647 3.26513L21.5645 3.26513C17.354 3.26513 15.1924 1.02099 15.1924-3.03955L15.1924-61.356C15.1924-65.2632 17.1519-67.6269 21.0591-67.6269L22.4722-67.6269C22.3711-68.1103 22.3374-68.6426 22.3374-69.1782L22.3374-72.1948C22.3374-72.4761 22.3374-72.8062 22.3711-73.0874L20.9277-73.0874C13.4868-73.0874 9.76562-69.0293 9.76562-61.4536L9.76562-2.9419C9.76562 4.80225 13.6216 8.67676 21.2647 8.67676ZM29.9019-64.7334L53.3936-64.7334C55.5137-64.7334 56.7969-66.0352 56.7969-68.2446L56.7969-72.21C56.7969-74.4346 55.5137-75.7212 53.3936-75.7212L49.6294-75.7212C49.4273-79.9258 45.9551-83.312 41.6646-83.312C37.3892-83.312 33.9019-79.9258 33.666-75.7212L29.9019-75.7212C27.7969-75.7212 26.5322-74.4346 26.5322-72.21L26.5322-68.2446C26.5322-66.0352 27.7969-64.7334 29.9019-64.7334ZM41.6646-72.1045C39.7974-72.1045 38.2686-73.6484 38.2686-75.5005C38.2686-77.3828 39.7974-78.8779 41.6646-78.8779C43.5317-78.8779 45.0269-77.3828 45.0269-75.5005C45.0269-73.6484 43.5317-72.1045 41.6646-72.1045Z"/>
  </g>
  <g id="Thin-S" transform="matrix(1 0 0 1 815.578 696)">
   <path d="M24.752-43.4707C26.0723-43.4707 27.1074-44.541 27.1074-45.8262C27.1074-47.1465 26.0723-48.2168 24.752-48.2168C23.4805-48.2168 22.3965-47.1328 22.3965-45.8262C22.3965-44.5547 23.4805-43.4707 24.752-43.4707ZM24.752-29.4805C26.0723-29.4805 27.1074-30.5156 27.1074-31.8359C27.1074-33.1563 26.0723-34.1777 24.752-34.1777C23.4668-34.1777 22.3965-33.1426 22.3965-31.8359C22.3965-30.5156 23.4668-29.4805 24.752-29.4805ZM24.752-14.6172C26.0723-14.6172 27.1074-15.6875 27.1074-17.0078C27.1074-18.293 26.0723-19.3633 24.752-19.3633C23.4805-19.3633 22.3965-18.2793 22.3965-17.0078C22.3965-15.7012 23.4805-14.6172 24.752-14.6172ZM33.3711-44.4062L57.9063-44.4062C58.7031-44.4062 59.3262-45.0644 59.3262-45.8262C59.3262-46.623 58.7031-47.2813 57.9063-47.2813L33.3711-47.2813C32.5742-47.2813 31.9512-46.623 31.9512-45.8262C31.9512-45.0644 32.5742-44.4062 33.3711-44.4062ZM33.3711-30.416L57.9063-30.416C58.7168-30.416 59.3262-31.0254 59.3262-31.8359C59.3262-32.6328 58.7168-33.2422 57.9063-33.2422L33.3711-33.2422C32.5606-33.2422 31.9512-32.6328 31.9512-31.8359C31.9512-31.0254 32.5606-30.416 33.3711-30.416ZM33.3711-15.5527L57.9063-15.5527C58.7031-15.5527 59.3262-16.2109 59.3262-17.0078C59.3262-17.7695 58.7168-18.4141 57.9063-18.4141L33.3711-18.4141C32.5606-18.4141 31.9512-17.7695 31.9512-17.0078C31.9512-16.2109 32.5742-15.5527 33.3711-15.5527ZM20.2637 8.07618L61.4102 8.07618C68.3477 8.07618 71.9219 4.50196 71.9219-2.44141L71.9219-62.3945C71.9219-69.2695 68.3672-72.9473 61.5606-72.9473L58.5957-72.9473C58.6094-72.7461 58.6094-72.4961 58.6094-72.2949L58.6094-70.5195C58.6094-70.2441 58.5957-69.9121 58.5899-69.6289L61.4492-69.6289C66.1836-69.6289 68.6387-67.0449 68.6387-62.2969L68.6387-2.53907C68.6387 2.24217 66.1016 4.80662 61.2441 4.80662L20.4434 4.80662C15.5723 4.80662 13.0703 2.24217 13.0703-2.53907L13.0703-62.2969C13.0703-67.0449 15.4903-69.6289 20.2383-69.6289L23.1328-69.6289C23.0918-69.9121 23.0781-70.2441 23.0781-70.5195L23.0781-72.2949C23.0781-72.4961 23.0781-72.7461 23.0918-72.9473L20.127-72.9473C13.3066-72.9473 9.76562-69.2695 9.76562-62.3945L9.76562-2.44141C9.76562 4.50196 13.3613 8.07618 20.2637 8.07618ZM29.2813-65.8144L52.3926-65.8144C54.1524-65.8144 55.1953-66.8359 55.1953-68.5449L55.1953-72.3301C55.1953-74.0742 54.1524-75.0606 52.3926-75.0606L47.8477-75.0606C47.7656-78.8848 44.6738-81.9707 40.8438-81.9707C37.0488-81.9707 33.9219-78.8848 33.8262-75.0606L29.2813-75.0606C27.5566-75.0606 26.4922-74.0742 26.4922-72.3301L26.4922-68.5449C26.4922-66.8359 27.5566-65.8144 29.2813-65.8144ZM40.8438-71.5039C38.8965-71.5039 37.3477-73.0879 37.3477-75C37.3477-76.9824 38.8965-78.5176 40.8438-78.5176C42.791-78.5176 44.3262-76.9824 44.3262-75C44.3262-73.0879 42.791-71.5039 40.8438-71.5039Z"/>
  </g>
  <g id="Ultralight-S" transform="matrix(1 0 0 1 519.288 696)">
   <path d="M24.3521-43.9731C25.4878-43.9731 26.3692-44.8999 26.3692-45.9902C26.3692-47.126 25.4878-48.0527 24.3521-48.0527C23.2651-48.0527 22.335-47.1226 22.335-45.9902C22.335-44.9033 23.2651-43.9731 24.3521-43.9731ZM24.3521-29.8188C25.4878-29.8188 26.3692-30.7002 26.3692-31.8359C26.3692-32.9717 25.4878-33.8496 24.3521-33.8496C23.2617-33.8496 22.335-32.9683 22.335-31.8359C22.335-30.7002 23.2617-29.8188 24.3521-29.8188ZM24.3521-14.7505C25.4878-14.7505 26.3692-15.6772 26.3692-16.813C26.3692-17.9033 25.4878-18.8301 24.3521-18.8301C23.2651-18.8301 22.335-17.8999 22.335-16.813C22.335-15.6807 23.2651-14.7505 24.3521-14.7505ZM32.3662-44.9394L57.5064-44.9394C58.1084-44.9394 58.5572-45.4336 58.5572-45.9902C58.5572-46.5923 58.1084-47.0864 57.5064-47.0864L32.3662-47.0864C31.7642-47.0864 31.3155-46.5923 31.3155-45.9902C31.3155-45.4336 31.7642-44.9394 32.3662-44.9394ZM32.3662-30.7851L57.5064-30.7851C58.1118-30.7851 58.5572-31.2305 58.5572-31.8359C58.5572-32.438 58.1118-32.8833 57.5064-32.8833L32.3662-32.8833C31.7608-32.8833 31.3155-32.438 31.3155-31.8359C31.3155-31.2305 31.7608-30.7851 32.3662-30.7851ZM32.3662-15.7168L57.5064-15.7168C58.1084-15.7168 58.5572-16.2109 58.5572-16.813C58.5572-17.3696 58.1118-17.8604 57.5064-17.8604L32.3662-17.8604C31.7608-17.8604 31.3155-17.3696 31.3155-16.813C31.3155-16.2109 31.7642-15.7168 32.3662-15.7168ZM19.751 7.76857L61.0923 7.76857C67.6607 7.76857 71.0811 4.34815 71.0811-2.18507L71.0811-62.8764C71.0811-69.3926 67.6289-72.8755 61.1299-72.8755L57.3858-72.8755C57.3892-72.7153 57.3892-72.5063 57.3892-72.3462L57.3892-71.2065C57.3892-71.0644 57.3858-70.8349 57.4209-70.6543L61.0288-70.6543C66.2041-70.6543 68.9053-67.9575 68.9053-62.7788L68.9053-2.28272C68.9053 2.86765 66.1836 5.59616 60.9775 5.59616L19.8692 5.59616C14.6597 5.59616 11.9834 2.86765 11.9834-2.28272L11.9834-62.7788C11.9834-67.9575 14.6392-70.6543 19.8179-70.6543L23.4712-70.6543C23.4609-70.8349 23.4575-71.0644 23.4575-71.2065L23.4575-72.3462C23.4575-72.5063 23.4575-72.7153 23.4609-72.8755L19.7168-72.8755C13.2144-72.8755 9.76562-69.3926 9.76562-62.8764L9.76562-2.18507C9.76562 4.34815 13.228 7.76857 19.751 7.76857ZM28.9634-66.3681L51.8799-66.3681C53.4551-66.3681 54.375-67.2461 54.375-68.6987L54.375-72.3916C54.375-73.8897 53.4551-74.7222 51.8799-74.7222L46.9351-74.7222C46.9146-78.3516 44.0176-81.2837 40.4234-81.2837C36.8745-81.2837 33.9321-78.3516 33.9082-74.7222L28.9634-74.7222C27.4336-74.7222 26.4717-73.8897 26.4717-72.3916L26.4717-68.6987C26.4717-67.2461 27.4336-66.3681 28.9634-66.3681ZM40.4234-71.1963C38.4351-71.1963 36.876-72.8008 36.876-74.7437C36.876-76.7774 38.4351-78.333 40.4234-78.333C42.4116-78.333 43.9673-76.7774 43.9673-74.7437C43.9673-72.8008 42.4116-71.1963 40.4234-71.1963Z"/>
  </g>
 </g>
</svg>
