<?xml version="1.0" standalone="no"?><!DOCTYPE svg PUBLIC "-//W3C//DTD SVG 1.1//EN" "http://www.w3.org/Graphics/SVG/1.1/DTD/svg11.dtd"><svg class="icon" width="200px" height="200.00px" viewBox="0 0 1024 1024" version="1.1" xmlns="http://www.w3.org/2000/svg"><path d="M534.613051 0.853323C590.505685 0 645.971659 0.426661 701.437632 0c3.413291 65.279184 26.879664 131.838352 74.665733 177.917776 47.786069 47.359408 115.19856 69.119136 180.904406 76.372379v171.944517c-61.439232-2.133307-123.305125-14.933147-179.19776-41.386149-24.319696-11.093195-46.932747-25.173019-69.119136-39.679504-0.426661 124.585109 0.426661 249.170219-0.853323 373.328666-3.413291 59.732587-23.039712 119.038512-57.59928 168.104566-55.892635 81.918976-152.744757 135.251643-252.156848 136.958288-61.012571 3.413291-122.025141-13.226501-174.077824-43.946118-86.185589-50.772699-146.771499-143.784869-155.731387-243.623621-0.853323-21.333067-1.279984-42.666133-0.426661-63.572539 7.679904-81.065653 47.786069-158.718016 110.078624-211.624021 70.825781-61.439232 169.811211-90.878864 262.39672-73.385749 0.853323 63.145877-1.706645 126.291755-1.706645 189.437632-42.239472-13.653163-91.732187-9.813211-128.851723 15.786469-26.879664 17.493115-47.359408 44.372779-58.025941 74.665733-8.959888 21.759728-6.39992 45.652763-5.973259 68.692475 10.239872 69.972459 77.652363 128.851723 149.331467 122.451803 47.786069-0.426661 93.438832-28.159648 118.185189-68.692475 8.106565-14.079824 17.066453-28.586309 17.493115-45.226101 4.266613-76.372379 2.559968-152.318096 2.986629-228.690475 0.426661-171.944517-0.426661-343.462373 0.853323-514.980229z" /></svg>